<?xml version="1.0" encoding="utf-8"?>
<!-- Generator: Adobe Illustrator 28.1.0, SVG Export Plug-In . SVG Version: 6.00 Build 0)  -->
<svg version="1.1" id="Camada_1" xmlns="http://www.w3.org/2000/svg" xmlns:xlink="http://www.w3.org/1999/xlink" x="0px" y="0px"
	 viewBox="0 0 300 300" style="enable-background:new 0 0 300 300;" xml:space="preserve">
<style type="text/css">
	.st0{fill:#594B9A;}
	.st1{fill:#A259FF;}
</style>
<g>
	<path class="st0" d="M250.07,87.22c0-0.58,0-1.15,0-1.73c-0.57-0.58-0.57-0.58-1.14-1.15c0-0.58,0-0.58,0-1.15
		c-0.57,0-0.57,0-0.57,0c-0.57-0.58-0.57-1.15-1.14-1.15c-0.57-0.58-1.14-0.58-1.14-0.58c-0.57-0.58-1.14-0.58-1.71-0.58
		s-1.14-0.58-1.71-0.58l0,0H58.62c0,0,0,0-0.57,0s-0.57,0.58-1.14,0.58s-1.14,0-1.71,0.58c-0.57,0-0.57,0-1.14,0.58
		c-0.57,0-1.14,0.58-1.14,1.15h-0.57c0,0.58,0,0.58-0.57,1.15c0,0.58-0.57,0.58-0.57,1.15c0,0.58,0,1.15-0.57,1.73
		c0,0.58,0,0.58,0,1.15v128.34c0,4.6,3.42,8.06,7.98,8.06h184.05c4.56,0,7.98-3.45,7.98-8.06V88.37
		C250.64,87.8,250.07,87.8,250.07,87.22L250.07,87.22z M221.01,96.43L221.01,96.43l-70.66,58.7l-70.09-58.7
		C80.26,96.43,221.01,96.43,221.01,96.43z M66.59,208.65L66.59,208.65V105.64l79.2,66.18c1.14,1.15,2.85,1.73,4.56,1.73
		c2.28,0,3.99-0.58,5.13-1.73l79.2-66.18v103.02H66.59V208.65z"/>
	<path class="st1" d="M250.07,87.22c0-0.58,0-1.15,0-1.73c-0.57-0.58-0.57-0.58-1.14-1.15c0-0.58,0-0.58,0-1.15
		c-0.57,0-0.57,0-0.57,0c-0.57-0.58-0.57-1.15-1.14-1.15c-0.57-0.58-1.14-0.58-1.14-0.58c-0.57-0.58-1.14-0.58-1.71-0.58
		s-1.14-0.58-1.71-0.58l0,0H58.62c0,0,0,0-0.57,0s-0.57,0.58-1.14,0.58s-1.14,0-1.71,0.58c-0.57,0-0.57,0-1.14,0.58
		c-0.57,0-1.14,0.58-1.14,1.15h-0.57c0,0.58,0,0.58-0.57,1.15c0,0.58-0.57,0.58-0.57,1.15c0,0.58,0,1.15-0.57,1.73
		c0,0.58,0,0.58,0,1.15v128.34c0,4.6,3.42,8.06,7.98,8.06h184.05c4.56,0,7.98-3.45,7.98-8.06V88.37
		C250.64,87.8,250.07,87.8,250.07,87.22L250.07,87.22z M221.01,96.43L221.01,96.43l-70.66,58.7l-70.09-58.7
		C80.26,96.43,221.01,96.43,221.01,96.43z M66.59,208.65L66.59,208.65V105.64l79.2,66.18c1.14,1.15,2.85,1.73,4.56,1.73
		c2.28,0,3.99-0.58,5.13-1.73l79.2-66.18v103.02H66.59V208.65z"/>
</g>
</svg>
