<?xml version="1.0" encoding="utf-8"?>
<!-- Generator: Adobe Illustrator 28.1.0, SVG Export Plug-In . SVG Version: 6.00 Build 0)  -->
<svg version="1.1" id="Camada_1" xmlns="http://www.w3.org/2000/svg" xmlns:xlink="http://www.w3.org/1999/xlink" x="0px" y="0px"
	 viewBox="0 0 300 300" style="enable-background:new 0 0 300 300;" xml:space="preserve">
<style type="text/css">
	.st0{fill:#765EA5;}
</style>
<g>
	<path class="st0" d="M218.58,152.63c-1.32,16.22-14.46,29.23-30.89,30.42c-15.61,1.13-32.56-9.34-35.89-29.48v2.91
		c0,8.07-0.07,16.13,0.05,24.2c0.02,2.02-0.48,2.74-2.59,2.73c-10.1-0.09-20.22,0.29-30.31-0.11
		c-21.35-0.86-34.44-17.19-33.61-35.51c0.69-15.31,13.37-29.5,28.64-30.61c12.3-0.89,24.7-0.44,37.07-0.57
		c0.14,0,0.28,0.11,0.78,0.31V146c1.83-9.77,6.37-17.83,14.62-23.46c8.2-5.59,17.18-7.47,26.99-5.04
		C209.09,121.39,219.9,136.38,218.58,152.63z"/>
	<path class="st0" d="M151.82,185.94c-0.09,10.18,0.05,20.36-0.07,30.54c-0.21,19.67-16.33,34.58-35.85,33.3
		c-15.19-1-27.98-13.32-30.2-28.47c-2.41-16.45,8.44-34.3,27.51-37.24c6.19-0.95,12.65-0.15,18.99-0.15v-0.36
		c5.72,0,11.44,0.04,17.15-0.02C151.12,183.51,151.84,184.01,151.82,185.94z"/>
	<path class="st0" d="M82.47,78.79c2.69-16.64,18.29-28.86,37.45-28.89c11.59-0.02,23.17,0.06,34.76-0.05h0.21
		c10.15,0.11,20.3,0.03,30.45,0.05c16.81,0.03,30.49,12.26,32.85,28.89c2.26,15.89-8.34,33.65-27.73,36.93
		c-1.84,0.31-3.75,0.29-5.62,0.29c-9.86,0.02-19.72,0-29.59-0.01c-0.14,0-0.26,0-0.39,0c-0.06,0-0.11,0-0.17,0
		c-0.15,0-0.31,0-0.47,0c-11.25,0.01-22.49,0.03-33.73,0.01c-2.14,0-4.31,0.02-6.41-0.29C91.98,112.44,79.91,94.68,82.47,78.79z"/>
</g>
</svg>
