<?xml version="1.0" encoding="utf-8"?>
<!-- Generator: Adobe Illustrator 28.1.0, SVG Export Plug-In . SVG Version: 6.00 Build 0)  -->
<svg version="1.1" id="Camada_1" xmlns="http://www.w3.org/2000/svg" xmlns:xlink="http://www.w3.org/1999/xlink" x="0px" y="0px"
	 viewBox="0 0 300 300" style="enable-background:new 0 0 300 300;" xml:space="preserve">
<style type="text/css">
	.st0{fill:#765EA5;}
</style>
<g>
	<path class="st0" d="M47.15,146.33c0.52-3.75,0.96-7.5,1.56-11.24c2.36-14.66,7.98-28.01,16.36-40.21
		C77.75,76.42,94.76,63.5,115.8,56c14.28-5.09,29.06-6.53,44.15-5.12c18.8,1.76,35.71,8.4,50.81,19.63
		c18.37,13.66,30.79,31.57,37.33,53.49c4.2,14.07,5.1,28.46,3.08,42.98c-3.99,28.63-18.21,51.28-40.98,68.7
		c-8.26,6.32-17.56,10.84-27.4,14.2c-4.52,1.54-7.57-0.62-7.59-5.38c-0.04-8.87,0.01-17.75-0.02-26.62
		c-0.02-4.42-0.26-8.85-2.19-12.91c-1.13-2.37-2.69-4.54-4.07-6.81c3.74-0.7,7.81-1.22,11.74-2.23c10.44-2.69,19.8-7.32,26.13-16.49
		c4.61-6.67,6.74-14.31,7.68-22.27c0.71-6.04,0.92-12.1-0.24-18.13c-1.29-6.7-4.18-12.62-8.67-17.75c-0.81-0.93-0.95-1.69-0.55-2.83
		c2.95-8.43,1.81-16.68-1.32-24.79c-0.19-0.5-1.04-0.97-1.63-1.05c-3.56-0.5-6.93,0.5-10.06,1.98c-5.17,2.44-10.17,5.24-15.29,7.78
		c-0.91,0.45-2.18,0.74-3.13,0.5c-15.98-3.99-31.93-4-47.91,0.02c-0.94,0.24-2.28-0.03-3.11-0.56c-6.51-4.14-13.38-7.45-20.86-9.42
		c-0.13-0.03-0.25-0.08-0.38-0.11c-4.78-1.01-5.63-0.47-7.01,4.23c-2.13,7.28-2.51,14.54,0.04,21.82c0.21,0.59,0.02,1.61-0.39,2.07
		c-8.6,9.78-10.55,21.35-9.38,33.84c0.69,7.31,2.41,14.31,5.69,20.89c4.62,9.27,12.43,14.94,21.88,18.21
		c5.62,1.94,11.63,2.76,17.46,4.08c0.31,0.07,0.62,0.1,0.67,0.11c-1.49,2.71-3.03,5.39-4.44,8.14c-0.48,0.93-0.84,2.02-0.88,3.05
		c-0.09,2.16-1.22,3.14-3.18,3.67c-6.49,1.76-12.93,2.89-19.14-0.92c-3.26-2-5.69-4.8-7.61-8.07c-2.95-5.03-7.09-8.71-12.7-10.37
		c-2.07-0.61-4.44-0.45-6.65-0.32c-1.35,0.08-1.79,1.18-0.88,2.32c0.91,1.13,1.81,2.43,3.02,3.13c5.5,3.19,8.59,8.24,11.06,13.8
		c1.41,3.17,2.74,6.34,5.42,8.75c4.3,3.87,9.5,5.33,15.07,5.58c4.83,0.22,9.67,0.05,14.82,0.05c0,2.9-0.01,6.29,0,9.67
		c0.01,2.6,0.1,5.2,0.09,7.81c-0.01,4.8-3.17,7.12-7.71,5.57c-15.15-5.16-28.48-13.29-39.66-24.77
		c-10.84-11.13-19.12-23.91-24.22-38.66c-2.9-8.36-4.58-16.97-5.25-25.78c-0.06-0.78-0.21-1.56-0.31-2.34
		C47.15,154.33,47.15,150.33,47.15,146.33z"/>
</g>
</svg>
