<?xml version="1.0" encoding="utf-8"?>
<!-- Generator: Adobe Illustrator 28.1.0, SVG Export Plug-In . SVG Version: 6.00 Build 0)  -->
<svg version="1.1" id="Camada_1" xmlns="http://www.w3.org/2000/svg" xmlns:xlink="http://www.w3.org/1999/xlink" x="0px" y="0px"
	 viewBox="0 0 595.28 841.89" style="enable-background:new 0 0 595.28 841.89;" xml:space="preserve">
<style type="text/css">
	.st0{fill:#765FA6;}
</style>
<g>
	<path class="st0" d="M429.36,372.62l-31.25,17.19l-31.25,29.69v101.87h43.75c10.36,0,18.75-8.39,18.75-18.75V372.62z"/>
	<path class="st0" d="M166.86,372.62l22.59,10.69l39.91,36.19v101.87h-43.75c-10.36,0-18.75-8.39-18.75-18.75V372.62z"/>
	<polygon class="st0" points="366.86,341.37 298.11,392.93 229.36,341.37 223.11,377.62 229.36,419.49 298.11,471.06 366.86,419.49 
		373.11,377.62 	"/>
	<path class="st0" d="M166.86,348.23v24.39l62.5,46.88v-78.13l-19.53-14.63c-4.65-3.49-10.3-5.37-16.11-5.37l0,0
		C178.88,321.37,166.86,333.39,166.86,348.23z"/>
	<path class="st0" d="M429.36,348.23v24.39l-62.5,46.88v-78.13l19.53-14.63c4.65-3.49,10.3-5.37,16.11-5.37l0,0
		C417.33,321.37,429.36,333.39,429.36,348.23z"/>
</g>
</svg>
