<svg width="1263" height="160" viewBox="0 0 1263 160" fill="none" xmlns="http://www.w3.org/2000/svg">
<path d="M160.291 159.6C155.757 158.667 152.891 156.8 151.691 154C150.624 151.333 149.957 148.333 149.691 145L148.291 141C147.624 138.733 147.291 136.267 147.291 133.6C147.291 128.533 148.024 122.533 149.491 115.6C150.957 108.667 152.757 101.533 154.891 94.2C157.157 86.8667 159.424 79.9333 161.691 73.4C164.091 66.8667 166.157 61.4 167.891 57C169.624 52.6 170.757 49.9333 171.291 49C169.424 50.8667 166.491 53.7333 162.491 57.6C158.491 61.3333 154.024 65.6667 149.091 70.6C144.157 75.4 139.291 80.2667 134.491 85.2C129.824 90.1333 125.757 94.7333 122.291 99C118.824 103.267 116.557 106.733 115.491 109.4C112.957 109.133 110.957 107.733 109.491 105.2C108.157 102.533 107.491 100 107.491 97.6C107.491 95.7333 108.424 92.6667 110.291 88.4C112.291 84 114.757 79.1333 117.691 73.8C120.624 68.3333 123.624 63 126.691 57.8C129.891 52.4667 132.757 47.7333 135.291 43.6C137.957 39.4667 139.891 36.6 141.091 35C141.091 35 139.691 36.1333 136.891 38.4C134.224 40.6667 130.691 43.6667 126.291 47.4C121.891 51 117.024 55.0667 111.691 59.6C106.357 64 100.957 68.5333 95.4906 73.2C90.1573 77.7333 85.0906 82.1333 80.2906 86.4C75.624 90.5333 71.7573 94.1333 68.6906 97.2C68.5573 97.4667 69.2906 97 70.8906 95.8C72.4906 94.4667 74.4906 92.8 76.8906 90.8C79.424 88.6667 81.8906 86.6 84.2906 84.6C86.824 82.6 88.8906 80.9333 90.4906 79.6C92.0906 78.2667 92.824 77.7333 92.6906 78C85.624 84.5333 80.024 89.6 75.8906 93.2C71.8906 96.8 68.7573 99.7333 66.4906 102C65.424 103.067 64.1573 104.8 62.6906 107.2C61.3573 109.6 60.224 112.133 59.2906 114.8C58.3573 117.467 57.8906 120 57.8906 122.4C57.8906 124.933 58.5573 126.8 59.8906 128C60.5573 128.533 61.0906 129.067 61.4906 129.6C61.8906 130.133 62.0906 130.6 62.0906 131C62.0906 131.667 61.3573 132 59.8906 132C56.824 131.733 54.1573 130.6 51.8906 128.6C49.624 126.6 47.8906 124.4 46.6906 122C45.4906 119.467 44.8906 117.267 44.8906 115.4C44.8906 113.133 46.224 109.533 48.8906 104.6C51.5573 99.6667 55.024 93.9333 59.2906 87.4C63.6906 80.7333 68.424 73.8 73.4906 66.6C78.5573 59.4 83.624 52.4 88.6906 45.6C93.7573 38.8 98.2906 32.7333 102.291 27.4C106.291 21.9333 109.357 17.8 111.491 15C108.824 17.1333 106.624 19.4667 104.891 22C103.291 24.4 101.824 25.7333 100.491 26C102.091 24.1333 104.224 21.6667 106.891 18.6C109.557 15.5333 111.224 12.7333 111.891 10.2C110.824 9.93333 109.624 9.8 108.291 9.8C106.957 9.8 105.557 9.8 104.091 9.8C97.824 9.8 90.224 10.3333 81.2906 11.4C72.3573 12.4667 63.8906 13.8667 55.8906 15.6C54.5573 15.8667 52.2906 16.6 49.0906 17.8C45.8906 18.8667 42.224 20.2667 38.0906 22C34.0906 23.7333 30.0906 25.7333 26.0906 28C22.0906 30.2667 18.624 32.7333 15.6906 35.4C12.8906 37.9333 11.0906 40.6 10.2906 43.4C10.824 44.4667 11.0906 45.4667 11.0906 46.4C11.0906 48.2667 10.1573 49.2 8.29063 49.2C6.69063 49.2 4.95729 48.2667 3.09063 46.4C1.22396 44.5333 0.290625 41.9333 0.290625 38.6C0.290625 36.8667 0.557292 35.2 1.09062 33.6C2.42396 29.3333 4.75729 25.6 8.09063 22.4C11.424 19.2 15.2906 16.4 19.6906 14C24.224 11.6 28.8906 9.59999 33.6906 8C38.4906 6.39999 43.024 5.13333 47.2906 4.2C51.5573 3.13333 56.824 2.33333 63.0906 1.79999C69.3573 1.26666 75.8906 0.999992 82.6906 0.999992C87.8906 0.999992 93.0906 1.19999 98.2906 1.6C103.491 1.99999 108.357 2.66666 112.891 3.59999V2.99999C112.891 2.06666 113.424 1.6 114.491 1.6C114.757 1.6 115.424 1.73333 116.491 1.99999C118.091 2.53333 120.157 3.46666 122.691 4.79999C125.224 6.13332 127.424 7.73332 129.291 9.59999C131.291 11.3333 132.291 13.2 132.291 15.2C132.291 15.8667 132.224 16.4 132.091 16.8C127.691 21.4667 122.691 27 117.091 33.4C111.624 39.8 106.024 46.6 100.291 53.8C94.5573 60.8667 89.024 68.0667 83.6906 75.4C88.3573 71.4 93.5573 66.9333 99.2906 62C105.157 56.9333 111.024 51.9333 116.891 47C122.891 42.0667 128.357 37.5333 133.291 33.4C138.357 29.2667 142.357 26.0667 145.291 23.8C146.624 23.8 148.357 24.4667 150.491 25.8C152.757 27.1333 154.757 28.6667 156.491 30.4C158.357 32.1333 159.291 33.7333 159.291 35.2C158.091 37.2 156.357 39.8667 154.091 43.2C151.824 46.5333 149.424 50.0667 146.891 53.8C144.357 57.5333 141.891 61.1333 139.491 64.6C137.091 68.0667 135.091 71 133.491 73.4C134.024 73 135.624 71.4 138.291 68.6C141.091 65.8 144.424 62.4667 148.291 58.6C152.291 54.7333 156.291 50.9333 160.291 47.2C164.424 43.3333 168.024 40.1333 171.091 37.6C174.291 34.9333 176.357 33.5333 177.291 33.4C177.957 33.4 179.157 34.0667 180.891 35.4C182.624 36.6 184.424 38.1333 186.291 40C188.157 41.8667 189.624 43.6667 190.691 45.4C191.891 47 192.291 48.1333 191.891 48.8C185.891 56.6667 180.691 65.1333 176.291 74.2C172.024 83.2667 168.424 92.1333 165.491 100.8C167.757 95.2 170.091 89.6667 172.491 84.2C174.891 78.7333 177.224 73.7333 179.491 69.2C181.891 64.6667 183.891 61.0667 185.491 58.4C185.757 58.1333 185.891 58 185.891 58C186.024 58 185.957 58.4 185.691 59.2C185.424 60 184.957 60.9333 184.291 62C183.491 63.3333 182.157 66 180.291 70C178.557 74 176.557 78.7333 174.291 84.2C172.024 89.6667 169.757 95.2667 167.491 101C165.357 106.733 163.424 112.2 161.691 117.4C160.091 122.467 159.024 126.6 158.491 129.8C157.557 134.333 156.891 137.467 156.491 139.2C156.224 141.067 156.024 141.2 155.891 139.6L155.291 144.8C157.291 145.067 159.157 145.4 160.891 145.8C162.757 146.333 163.691 146.733 163.691 147C167.424 147.533 170.157 148.333 171.891 149.4C173.624 150.6 174.491 151.8 174.491 153C174.491 154.333 173.291 155.6 170.891 156.8C168.491 158.133 164.957 159.067 160.291 159.6ZM155.891 139.2C156.691 134.533 157.824 128.867 159.291 122.2C160.891 115.533 162.957 108.4 165.491 100.8C162.957 107.467 160.757 113.867 158.891 120C157.157 126.133 156.224 131.267 156.091 135.4C155.957 136.2 155.891 136.933 155.891 137.6C155.891 138.267 155.891 138.8 155.891 139.2ZM222.105 132.4C219.571 130.8 217.371 128.867 215.505 126.6C213.638 124.2 212.905 122.133 213.305 120.4C213.571 119.067 214.438 117 215.905 114.2C217.505 111.4 219.371 108.267 221.505 104.8C223.638 101.333 225.771 97.8 227.905 94.2C230.171 90.6 232.171 87.4 233.905 84.6C234.171 84.2 233.771 84.7333 232.705 86.2C231.771 87.5333 230.505 89.3333 228.905 91.6C227.438 93.7333 225.971 95.9333 224.505 98.2C223.171 100.333 222.171 101.933 221.505 103C221.505 102.333 222.038 101.067 223.105 99.2C224.305 97.3333 225.638 95.3333 227.105 93.2C228.571 90.9333 229.971 88.8 231.305 86.8C232.638 84.8 233.571 83.4 234.105 82.6C230.505 86.6 226.371 91.1333 221.705 96.2C217.038 101.133 212.371 106 207.705 110.8C203.171 115.6 199.105 119.8 195.505 123.4C192.038 127 189.705 129.4 188.505 130.6C184.905 129.4 182.371 127.533 180.905 125C179.438 122.467 178.705 120 178.705 117.6C178.705 116.267 178.905 115 179.305 113.8C180.771 110.733 182.771 106.933 185.305 102.4C187.971 97.7333 190.771 93 193.705 88.2C196.638 83.4 199.371 78.9333 201.905 74.8C204.438 70.5333 206.371 67.2667 207.705 65C207.571 64.0667 207.105 62.9333 206.305 61.6C205.638 60.2667 205.305 59.1333 205.305 58.2C205.305 57.1333 206.238 56.6 208.105 56.6C208.505 56.6 208.971 56.6 209.505 56.6C210.171 56.6 210.905 56.7333 211.705 57C212.638 57.1333 214.105 57.5333 216.105 58.2C218.105 58.8667 219.905 59.8667 221.505 61.2C223.238 62.4 224.105 64.0667 224.105 66.2C224.105 67.6667 223.638 69.1333 222.705 70.6C221.105 72.4667 219.171 75.1333 216.905 78.6C214.771 82.0667 212.571 85.7333 210.305 89.6C208.171 93.4667 206.171 97.0667 204.305 100.4C202.571 103.6 201.371 105.933 200.705 107.4C201.771 106.733 203.705 105.067 206.505 102.4C209.305 99.7333 212.505 96.5333 216.105 92.8C219.838 89.0667 223.571 85.3333 227.305 81.6C231.038 77.7333 234.371 74.4667 237.305 71.8C237.305 71.2667 237.971 69.8667 239.305 67.6C240.771 65.2 242.438 62.6667 244.305 60C246.305 57.3333 247.971 55.4 249.305 54.2C251.038 54.8667 252.905 55.8 254.905 57C257.038 58.0667 258.838 59.2667 260.305 60.6C261.905 61.8 262.705 63 262.705 64.2C262.705 64.7333 262.505 65.3333 262.105 66C257.705 72.1333 253.571 77.8667 249.705 83.2C245.838 88.4 242.638 92.7333 240.105 96.2C237.571 99.6667 236.105 101.867 235.705 102.8C236.771 101.867 237.971 100.867 239.305 99.8C241.438 97.8 244.505 95.6 248.505 93.2C253.438 90 259.105 86.7333 265.505 83.4C272.038 79.9333 278.905 77.0667 286.105 74.8C287.305 74.4 288.238 74.2 288.905 74.2C290.105 74.2 290.371 74.7333 289.705 75.8C289.038 76.7333 287.971 77.8 286.505 79C285.171 80.2 283.771 81.1333 282.305 81.8C275.105 85.4 268.305 89.2667 261.905 93.4C255.505 97.5333 249.638 102.133 244.305 107.2C240.305 110.933 236.638 115.067 233.305 119.6C229.971 124 226.238 128.267 222.105 132.4ZM238.305 100.8C238.305 100.933 238.705 100.867 239.505 100.6C240.305 100.2 240.905 99.8667 241.305 99.6C244.105 97.4667 247.638 95.2 251.905 92.8C256.305 90.2667 260.571 87.9333 264.705 85.8C268.838 83.6667 271.838 82.2 273.705 81.4C274.771 81 276.171 80.3333 277.905 79.4C279.771 78.4667 280.371 78.1333 279.705 78.4C277.705 78.9333 274.905 80 271.305 81.6C267.838 83.0667 264.038 84.8667 259.905 87C255.905 89 252.105 91.0667 248.505 93.2C246.771 94.4 245.105 95.6 243.505 96.8C242.038 97.8667 240.638 98.8667 239.305 99.8C239.038 100.067 238.771 100.333 238.505 100.6L238.305 100.8ZM267.713 130C265.446 129.733 263.646 128.467 262.313 126.2C260.979 123.8 260.312 121.533 260.312 119.4C260.312 117.667 261.246 114.933 263.113 111.2C265.113 107.467 267.579 103.267 270.513 98.6C273.579 93.8 276.713 89.1333 279.913 84.6C283.246 79.9333 286.179 75.8 288.713 72.2C291.379 68.6 293.246 66.0667 294.313 64.6C292.579 66.2 290.979 67.8 289.513 69.4C288.046 71 287.179 71.8 286.913 71.8C286.779 71.8 287.446 70.6 288.913 68.2C290.513 65.6667 293.579 61.1333 298.113 54.6C299.446 54.6 301.046 55.3333 302.913 56.8C304.779 58.2667 306.446 59.9333 307.913 61.8C309.379 63.6667 310.113 65.2667 310.113 66.6C308.646 69 306.313 72.0667 303.113 75.8C300.046 79.4 296.779 83.1333 293.313 87C289.979 90.8667 286.979 94.4 284.313 97.6C284.713 97.2 286.313 95.8 289.113 93.4C292.046 91 295.646 88 299.913 84.4C304.179 80.8 308.713 77 313.513 73C318.446 69 323.113 65.2667 327.513 61.8C331.913 58.2 335.646 55.3333 338.713 53.2C341.913 50.9333 343.913 49.8 344.713 49.8C345.513 49.8 346.646 50.6 348.113 52.2C349.713 53.6667 351.179 55.3333 352.513 57.2C353.846 59.0667 354.513 60.6 354.513 61.8C354.513 61.9333 353.513 63.0667 351.513 65.2C349.646 67.3333 347.246 70.0667 344.313 73.4C341.513 76.6 338.713 80 335.913 83.6C333.113 87.0667 330.713 90.3333 328.713 93.4C326.846 96.4667 325.979 98.7333 326.113 100.2C324.779 99.9333 323.646 98.7333 322.713 96.6C321.779 94.3333 321.313 91.8 321.313 89C321.313 87.4 321.779 85.4667 322.713 83.2C323.779 80.9333 324.913 78.7333 326.113 76.6C327.446 74.4667 328.579 72.6 329.513 71C330.579 69.4 331.113 68.5333 331.113 68.4C330.313 69.3333 329.179 70.8667 327.713 73C326.379 75.1333 325.046 77.2667 323.713 79.4C322.513 81.4 321.713 82.8667 321.313 83.8C321.713 82.2 322.846 79.6 324.713 76C326.579 72.4 329.046 68.8 332.113 65.2C330.646 66.5333 328.113 68.8 324.513 72C321.046 75.0667 317.046 78.7333 312.513 83C307.979 87.2667 303.246 91.7333 298.313 96.4C293.513 100.933 288.913 105.4 284.513 109.8C280.113 114.2 276.379 118.2 273.313 121.8C270.379 125.267 268.513 128 267.713 130ZM381.063 48C379.329 47.2 377.529 45.6667 375.663 43.4C373.796 41.1333 372.863 39.2 372.863 37.6C372.863 36.2667 373.463 35.6 374.663 35.6C375.329 35.6 376.129 35.7333 377.063 36C377.996 36.1333 378.929 36.2 379.863 36.2C381.063 36.2 382.396 35.8 383.863 35C385.329 34.0667 386.796 33.6 388.263 33.6C390.129 33.6 391.596 34.8667 392.663 37.4C393.063 38.0667 392.729 39 391.663 40.2C390.596 41.4 389.329 42.5333 387.862 43.6C386.529 44.6667 385.396 45.4667 384.463 46C385.129 46 386.196 45.5333 387.663 44.6C389.129 43.5333 390.329 42.5333 391.263 41.6C389.529 43.7333 387.529 45.4 385.263 46.6C382.996 47.6667 381.596 48.1333 381.063 48ZM337.663 129.4C335.263 127.267 333.596 125.533 332.663 124.2C331.863 122.733 331.463 121.4 331.463 120.2C331.463 119.267 331.596 118.333 331.863 117.4C332.263 116.467 332.596 115.467 332.863 114.4C334.329 109.467 336.729 104.133 340.063 98.4C343.396 92.6667 346.996 87.0667 350.863 81.6C354.863 76 358.396 71.0667 361.463 66.8C361.196 66.5333 361.063 65.7333 361.063 64.4C361.063 62.5333 361.396 60.4667 362.063 58.2C362.863 55.8 363.929 54.8667 365.263 55.4C366.863 55.8 368.729 56.6 370.863 57.8C373.129 59 375.129 60.4 376.863 62C378.596 63.6 379.463 65.3333 379.463 67.2C379.463 67.6 379.329 68.2 379.062 69H378.863C375.396 72.7333 371.996 76.8667 368.663 81.4C365.329 85.9333 362.396 90.2 359.863 94.2C357.463 98.0667 355.796 101 354.863 103C355.663 102.6 356.529 102.067 357.463 101.4C358.396 100.733 359.396 99.9333 360.463 99C359.796 99.4 359.196 99.6667 358.663 99.8C358.263 99.9333 358.196 99.9333 358.462 99.8C361.929 97 365.929 94.1333 370.463 91.2C375.129 88.2667 379.863 85.6 384.663 83.2C389.463 80.6667 393.996 78.6 398.263 77H398.663C398.929 77 398.729 77.2 398.063 77.6C397.529 77.8667 396.796 78.2 395.863 78.6C394.929 79 393.663 79.6667 392.063 80.6C390.463 81.4 388.663 82.4 386.663 83.6C388.529 82.8 390.463 81.8667 392.463 80.8C394.463 79.7333 396.529 78.8667 398.663 78.2C399.329 77.9333 399.929 77.7333 400.463 77.6C401.129 77.4667 401.596 77.4 401.863 77.4C402.796 77.4 403.263 77.7333 403.263 78.4C403.263 79.3333 402.329 80.6667 400.463 82.4C398.596 84.1333 396.196 85.8 393.263 87.4C391.529 88.3333 388.796 90.0667 385.063 92.6C381.463 95.1333 377.329 98.1333 372.663 101.6C367.996 104.933 363.263 108.4 358.462 112C353.796 115.6 349.596 118.933 345.863 122C342.129 125.067 339.396 127.533 337.663 129.4ZM360.463 99C361.129 98.7333 361.796 98.4 362.463 98C363.263 97.4667 363.796 97.1333 364.063 97C366.596 95.2667 369.929 93.2667 374.063 91C378.329 88.6 382.529 86.1333 386.663 83.6C379.996 86.8 374.729 89.6 370.863 92C366.996 94.4 363.529 96.7333 360.463 99ZM391.338 135.4C387.604 132.333 384.404 129.467 381.738 126.8C379.204 124.133 377.938 121.533 377.938 119C377.938 118.333 378.004 117.8 378.138 117.4C379.471 112.733 381.871 107.2 385.338 100.8C388.938 94.4 393.138 87.5333 397.938 80.2C402.871 72.7333 408.071 65.2667 413.538 57.8C419.004 50.2 424.338 43 429.538 36.2C434.871 29.2667 439.738 23.1333 444.138 17.8C448.538 12.3333 452.071 8.06666 454.738 5C457.404 1.93333 458.804 0.4 458.938 0.4C460.271 0.799994 462.271 2.13333 464.938 4.4C467.604 6.53333 469.404 8.73333 470.338 11C470.604 11.2667 470.738 11.5333 470.738 11.8C470.871 13.4 471.804 14.8667 473.538 16.2C475.271 17.5333 476.138 19 476.138 20.6C476.138 25.1333 474.404 30.0667 470.938 35.4C467.471 40.6 462.938 45.9333 457.338 51.4C451.738 56.8667 445.671 62.2667 439.138 67.6C432.604 72.8 426.138 77.6667 419.738 82.2C413.471 86.6 408.004 90.4667 403.338 93.8C399.338 99.4 396.938 104.4 396.138 108.8C395.471 113.2 395.204 116.467 395.338 118.6C401.871 114.2 408.071 109.267 413.938 103.8C415.404 102.6 417.538 100.933 420.338 98.8C423.271 96.5333 426.271 94.3333 429.338 92.2C432.404 90.0667 434.738 88.5333 436.338 87.6C437.804 86.8 438.938 86.1333 439.738 85.6C440.671 85.0667 440.604 85.2 439.538 86C436.338 88.5333 432.071 91.7333 426.738 95.6C434.338 90.5333 441.938 86.8 449.538 84.4C451.004 83.8667 452.138 83.6 452.938 83.6C454.271 83.6 454.204 84.3333 452.738 85.8C451.271 87.1333 449.538 88.5333 447.538 90C438.338 96.6667 428.871 103.667 419.138 111C409.404 118.333 400.138 126.467 391.338 135.4ZM411.338 82.8C416.404 79.0667 421.204 75.0667 425.738 70.8C430.271 66.4 434.804 62.1333 439.338 58C447.204 50.5333 453.538 43.2667 458.338 36.2C463.271 29.1333 466.404 22.8667 467.738 17.4C465.338 20.0667 462.071 23.7333 457.938 28.4C453.938 32.9333 449.471 38.0667 444.538 43.8C439.604 49.4 434.538 55.2 429.338 61.2C424.271 67.2 419.471 72.9333 414.938 78.4C414.538 78.8 414.004 79.4 413.338 80.2C412.804 80.8667 412.138 81.7333 411.338 82.8ZM398.738 120.6C400.204 119.133 402.071 117.4 404.338 115.4C406.604 113.4 409.204 110.933 412.138 108C413.471 106.667 415.471 104.8 418.138 102.4C420.938 100 423.804 97.7333 426.738 95.6C421.404 99.3333 416.738 102.8 412.738 106C408.738 109.2 405.071 112.2 401.738 115L398.938 118.4C398.138 119.333 397.804 120.067 397.938 120.6C398.071 121.133 398.338 121.133 398.738 120.6ZM463.089 131.6C461.222 131.6 459.222 131.2 457.089 130.4C455.089 129.733 453.289 128.667 451.689 127.2C450.089 125.733 448.356 123.533 446.489 120.6C444.756 117.533 443.889 114.533 443.889 111.6C443.889 110.4 444.089 109.333 444.489 108.4C448.756 96.9333 455.689 86.4667 465.289 77C474.889 67.4 486.622 59.3333 500.489 52.8C502.356 52.8 504.289 53.5333 506.289 55C508.289 56.3333 509.956 58 511.289 60L514.889 61.2C514.756 59.7333 514.289 58.8667 513.489 58.6C512.689 58.2 512.289 57.6667 512.289 57C512.556 55.8 513.422 55.1333 514.889 55C516.356 54.7333 517.422 54.6 518.089 54.6C520.222 54.6 521.956 55.6 523.289 57.6C524.756 59.4667 525.556 61.5333 525.689 63.8C528.889 64.2 532.222 64.4667 535.689 64.6C539.156 64.7333 542.156 64.8667 544.689 65C547.356 65 548.822 65 549.089 65H549.689C550.089 65 550.289 65.2667 550.289 65.8C550.289 66.7333 549.756 67.5333 548.689 68.2C547.356 69.2667 544.222 70 539.289 70.4C534.489 70.6667 529.422 70.8 524.089 70.8C523.422 72.8 522.422 74.9333 521.089 77.2C519.756 79.4667 518.222 81.8 516.489 84.2C515.289 85.9333 513.489 88.2667 511.089 91.2C508.689 94 506.222 96.8667 503.689 99.8C501.156 102.733 499.022 105.2 497.289 107.2C498.489 106.133 500.422 104.267 503.089 101.6C505.889 98.8 508.156 96.3333 509.889 94.2C510.556 93.4 511.556 92.1333 512.889 90.4C514.222 88.5333 515.489 86.8 516.689 85.2C518.022 83.4667 518.822 82.3333 519.089 81.8C517.356 85.4 515.156 88.8667 512.489 92.2C509.822 95.5333 507.156 98.5333 504.489 101.2C501.822 103.867 499.556 106.067 497.689 107.8C495.822 109.4 494.756 110.333 494.489 110.6C488.889 116.467 483.222 121.467 477.489 125.6C471.889 129.6 467.089 131.6 463.089 131.6ZM456.689 124.8C457.356 124.8 458.156 124.6 459.089 124.2C460.556 123.4 462.422 122.133 464.689 120.4C467.089 118.667 469.556 116.867 472.089 115C474.356 113.133 476.889 110.867 479.689 108.2C482.489 105.4 485.556 102.133 488.889 98.4C491.822 95.0667 494.956 91.4667 498.289 87.6C501.622 83.6 504.889 79.4667 508.089 75.2L505.089 78C506.022 77.0667 507.156 75.8 508.489 74.2C509.956 72.4667 511.156 71.1333 512.089 70.2C507.956 69.9333 505.489 69.7333 504.689 69.6C504.556 69.8667 504.356 70 504.089 70C503.822 70 503.689 69.5333 503.689 68.6C503.689 68.3333 503.689 68 503.689 67.6C503.689 67.0667 503.756 66.5333 503.889 66C502.556 65.8667 501.089 66.0667 499.489 66.6C497.889 67.1333 496.089 68.2667 494.089 70C491.822 72.1333 488.889 74.8 485.289 78C481.689 81.2 477.956 84.8667 474.089 89C470.222 93 466.556 97.3333 463.089 102C459.756 106.667 457.089 111.6 455.089 116.8C454.422 118.4 454.089 120 454.089 121.6C454.089 123.867 455.089 124.533 457.089 123.6C456.422 124 456.089 124.267 456.089 124.4C456.089 124.667 456.289 124.8 456.689 124.8ZM457.089 123.6C459.622 122.267 463.622 119.467 469.089 115.2C474.689 110.8 480.356 105.467 486.089 99.2C487.956 97.2 490.089 94.9333 492.489 92.4C494.889 89.7333 497.222 87.2 499.489 84.8C501.756 82.4 503.489 80.5333 504.689 79.2C501.622 82.9333 498.756 86.3333 496.089 89.4C493.556 92.3333 491.089 95.1333 488.689 97.8C483.089 103.8 477.356 109.2 471.489 114C465.756 118.8 460.956 122 457.089 123.6ZM604.714 8.8C609.514 7.73333 614.447 6.93333 619.514 6.39999C624.714 5.73333 629.981 5.33333 635.314 5.2C629.847 5.33333 624.447 5.73333 619.114 6.39999C613.914 7.06666 609.114 7.86666 604.714 8.8ZM672.514 8.59999C667.847 7.66666 663.114 6.93333 658.314 6.39999C653.647 5.73333 649.047 5.33333 644.514 5.2C649.447 5.33333 654.247 5.66666 658.914 6.2C663.714 6.73333 668.247 7.53333 672.514 8.59999ZM595.914 132C592.714 131.733 589.647 130.133 586.714 127.2C583.781 124.267 582.314 120.6 582.314 116.2C582.314 112.867 583.181 109.2 584.914 105.2C586.647 101.067 588.781 96.9333 591.314 92.8C593.981 88.5333 596.647 84.6667 599.314 81.2C597.847 81.2 595.447 81.4 592.114 81.8C588.781 82.2 585.514 82.6 582.314 83C579.247 83.2667 577.181 83.4667 576.114 83.6C575.847 83.6 575.581 83.6667 575.314 83.8C575.181 83.8 574.981 83.8 574.714 83.8C573.114 83.8 572.314 83.3333 572.314 82.4C572.314 81.4667 573.247 80.4 575.114 79.2C577.114 77.8667 579.381 77 581.914 76.6L606.314 73.4C608.581 70.4667 611.781 66.6667 615.914 62C620.181 57.3333 624.914 52.3333 630.114 47C635.314 41.5333 640.581 36.2 645.914 31C651.381 25.8 656.514 21.2 661.314 17.2C660.781 17.7333 659.581 18.6667 657.714 20C655.847 21.2 653.981 22.6 652.114 24.2C652.647 23.5333 653.914 22.3333 655.914 20.6C658.047 18.8667 659.781 17.4667 661.114 16.4C653.914 16.4 646.047 16.6667 637.514 17.2C629.114 17.6 620.914 18.7333 612.914 20.6C611.581 20.8667 609.314 21.5333 606.114 22.6C602.914 23.6667 599.247 25.1333 595.114 27C591.114 28.7333 587.114 30.7333 583.114 33C579.114 35.1333 575.647 37.5333 572.714 40.2C569.914 42.8667 568.114 45.6 567.314 48.4C567.847 49.4667 568.114 50.4667 568.114 51.4C568.114 53.2667 567.247 54.2 565.514 54.2C563.914 54.2 562.114 53.2667 560.114 51.4C558.247 49.4 557.314 46.7333 557.314 43.4C557.314 41.6667 557.581 40 558.114 38.4C559.581 34 561.981 30.2 565.314 27L564.914 27.2C564.381 27.4667 564.181 27.5333 564.314 27.4C564.581 27.2667 564.981 27 565.514 26.6L565.314 27C571.314 23.6667 577.847 20.4 584.914 17.2C592.114 14 600.181 11.3333 609.114 9.19999C618.047 7.06666 628.047 6 639.114 6C644.181 6 649.514 6.26666 655.114 6.79999C660.714 7.33332 666.581 8.19999 672.714 9.39999C673.381 9.53332 674.247 9.66666 675.314 9.8C676.514 9.93333 677.314 10 677.714 10H677.914C677.914 9.86666 676.381 9.46666 673.314 8.8C672.914 8.8 672.647 8.73333 672.514 8.59999C674.247 7.53333 675.647 6.8 676.714 6.39999C677.781 5.99999 678.781 5.79999 679.714 5.79999C680.647 5.79999 682.247 5.93333 684.514 6.2C686.914 6.46666 689.181 6.99999 691.314 7.8C693.447 8.6 694.581 9.79999 694.714 11.4C697.781 11.6667 700.914 11.8667 704.114 12C707.447 12.1333 710.781 12.2 714.114 12.2C719.581 12.2 724.914 12 730.114 11.6C735.447 11.2 740.247 10.7333 744.514 10.2C744.114 12.3333 742.847 14.4 740.714 16.4C738.581 18.2667 735.114 19.8667 730.314 21.2C725.514 22.4 718.981 23 710.714 23C706.447 23 701.581 22.8 696.114 22.4C694.647 22.2667 692.647 22.0667 690.114 21.8C687.581 21.4 685.581 21.2667 684.114 21.4C679.581 24.6 674.514 28.4 668.914 32.8C663.314 37.0667 657.647 41.6 651.914 46.4C646.181 51.0667 640.847 55.6667 635.914 60.2C630.981 64.6 626.981 68.5333 623.914 72C628.714 71.2 634.581 70.4 641.514 69.6C648.581 68.8 655.714 67.6667 662.914 66.2H663.114C663.781 66.2 664.447 66.4667 665.114 67C665.914 67.5333 666.447 67.8 666.714 67.8C667.781 67.8 668.647 68.5333 669.314 70C669.981 71.4667 670.314 72.5333 670.314 73.2C670.314 73.7333 669.314 74.9333 667.314 76.8C665.447 78.5333 663.047 80.6 660.114 83C657.181 85.4 654.181 87.7333 651.114 90C648.181 92.2667 645.581 94.2 643.314 95.8C641.181 97.2667 639.981 98 639.714 98C639.714 97.3333 640.181 96.4667 641.114 95.4C642.047 94.2 643.247 92.8 644.714 91.2C648.047 87.4667 650.714 84.3333 652.714 81.8C654.714 79.1333 655.914 77.4667 656.314 76.8C654.847 78.4 653.114 80.4667 651.114 83C649.247 85.4 647.047 87.8667 644.514 90.4C646.114 88.5333 647.647 86.5333 649.114 84.4C650.581 82.2667 651.781 80.4667 652.714 79C653.647 77.5333 654.047 76.8 653.914 76.8C651.914 76.9333 648.981 77.1333 645.114 77.4C641.381 77.5333 637.514 77.7333 633.514 78C629.514 78.2667 626.047 78.5333 623.114 78.8C620.181 79.0667 618.447 79.2 617.914 79.2C618.447 79.3333 619.047 79.4 619.714 79.4C620.514 79.4 621.381 79.4 622.314 79.4C622.981 79.4 623.781 79.4 624.714 79.4C625.781 79.4 626.914 79.3333 628.114 79.2C625.581 79.7333 623.714 80.0667 622.514 80.2C621.447 80.2 619.581 80.3333 616.914 80.6C610.514 87.9333 605.914 94.4667 603.114 100.2C600.447 105.933 598.781 110.6 598.114 114.2C597.581 117.8 597.314 120.2 597.314 121.4C597.314 123.533 598.047 125.4 599.514 127C601.114 128.467 601.914 129.667 601.914 130.6C601.914 131 601.447 131.333 600.514 131.6C599.714 131.867 598.181 132 595.914 132ZM602.914 9.19999C603.314 9.19999 603.847 9.06666 604.514 8.8H604.714C604.714 8.8 604.647 8.8 604.514 8.8C603.847 9.06666 603.381 9.19999 603.114 9.19999H602.914ZM593.914 11.8C595.381 11.2667 596.847 10.8 598.314 10.4C599.914 10 601.447 9.6 602.914 9.19999L593.914 11.8ZM565.514 26.6C569.247 23.1333 573.647 20.2 578.714 17.8C583.781 15.4 588.847 13.4 593.914 11.8C589.114 13.4 584.514 15.4 580.114 17.8C575.847 20.0667 571.781 22.5333 567.914 25.2L565.514 26.6ZM685.289 131.4C682.356 131.4 679.222 130.267 675.889 128C672.556 125.733 669.689 123.067 667.289 120C665.022 116.933 663.889 114.133 663.889 111.6C663.889 106.8 665.289 101.667 668.089 96.2C671.022 90.6 674.756 85.1333 679.289 79.8C683.956 74.4667 688.889 69.7333 694.089 65.6C699.289 61.4667 704.289 58.4667 709.089 56.6C710.422 56.0667 711.622 55.7333 712.689 55.6C713.756 55.4667 714.556 55.4 715.089 55.4C716.689 55.4 718.556 56.5333 720.689 58.8C722.822 60.9333 724.756 63.2667 726.489 65.8C728.222 68.3333 729.222 70.2667 729.489 71.6C729.489 73.7333 728.222 76.3333 725.689 79.4C723.289 82.3333 720.089 85.4 716.089 88.6C712.089 91.6667 707.756 94.5333 703.089 97.2C698.556 99.8667 694.156 102 689.889 103.6C685.622 105.067 681.956 105.733 678.889 105.6C676.756 109.467 675.689 112.667 675.689 115.2C675.689 116.533 676.022 117.733 676.689 118.8C677.356 119.733 678.689 120.133 680.689 120C683.889 118.933 687.889 117 692.689 114.2C697.489 111.4 702.622 108.267 708.089 104.8C713.689 101.2 719.156 97.7333 724.489 94.4C729.956 90.9333 734.822 88.0667 739.089 85.8C741.356 84.6 743.022 84 744.089 84C745.022 84 745.489 84.3333 745.489 85C745.489 85.5333 744.889 86.4 743.689 87.6C742.622 88.8 740.956 90 738.689 91.2C737.489 91.8667 736.156 92.6667 734.689 93.6C733.222 94.5333 731.689 95.6 730.089 96.8C726.356 99.4667 722.356 102.533 718.089 106C713.956 109.467 709.756 112.933 705.489 116.4C701.356 119.867 697.489 122.933 693.889 125.6C690.422 128.267 687.556 130.2 685.289 131.4ZM683.089 99C687.089 97.5333 691.356 95.4667 695.889 92.8C700.422 90.1333 704.689 87.3333 708.689 84.4C712.689 81.3333 715.889 78.6 718.289 76.2L719.289 75.2C719.289 74.9333 718.489 75.4 716.889 76.6L700.089 89C699.956 89.1333 699.756 89.2 699.489 89.2C699.356 89.2 699.422 89.0667 699.689 88.8C699.956 88.4 700.422 88 701.089 87.6C703.756 85.7333 706.489 83.6667 709.289 81.4C712.089 79 714.756 76.7333 717.289 74.6C720.489 72.0667 722.089 70.5333 722.089 70C719.022 70 715.089 71.4667 710.289 74.4C705.489 77.3333 700.622 81 695.689 85.4C690.889 89.8 686.689 94.3333 683.089 99ZM730.213 130C727.946 129.733 726.146 128.467 724.813 126.2C723.479 123.8 722.812 121.533 722.812 119.4C722.812 117.667 723.746 114.933 725.613 111.2C727.613 107.467 730.079 103.267 733.013 98.6C736.079 93.8 739.213 89.1333 742.413 84.6C745.746 79.9333 748.679 75.8 751.213 72.2C753.879 68.6 755.746 66.0667 756.813 64.6C755.079 66.2 753.479 67.8 752.013 69.4C750.546 71 749.679 71.8 749.413 71.8C749.279 71.8 749.946 70.6 751.413 68.2C753.013 65.6667 756.079 61.1333 760.613 54.6C761.946 54.6 763.546 55.3333 765.413 56.8C767.279 58.2667 768.946 59.9333 770.413 61.8C771.879 63.6667 772.613 65.2667 772.613 66.6C771.146 69 768.813 72.0667 765.613 75.8C762.546 79.4 759.279 83.1333 755.813 87C752.479 90.8667 749.479 94.4 746.813 97.6C747.213 97.2 748.813 95.8 751.613 93.4C754.546 91 758.146 88 762.413 84.4C766.679 80.8 771.213 77 776.013 73C780.946 69 785.613 65.2667 790.013 61.8C794.413 58.2 798.146 55.3333 801.213 53.2C804.413 50.9333 806.413 49.8 807.213 49.8C808.013 49.8 809.146 50.6 810.613 52.2C812.213 53.6667 813.679 55.3333 815.013 57.2C816.346 59.0667 817.013 60.6 817.013 61.8C817.013 61.9333 816.013 63.0667 814.013 65.2C812.146 67.3333 809.746 70.0667 806.813 73.4C804.013 76.6 801.213 80 798.413 83.6C795.613 87.0667 793.213 90.3333 791.213 93.4C789.346 96.4667 788.479 98.7333 788.613 100.2C787.279 99.9333 786.146 98.7333 785.213 96.6C784.279 94.3333 783.813 91.8 783.813 89C783.813 87.4 784.279 85.4667 785.213 83.2C786.279 80.9333 787.413 78.7333 788.613 76.6C789.946 74.4667 791.079 72.6 792.013 71C793.079 69.4 793.613 68.5333 793.613 68.4C792.813 69.3333 791.679 70.8667 790.213 73C788.879 75.1333 787.546 77.2667 786.213 79.4C785.013 81.4 784.213 82.8667 783.813 83.8C784.213 82.2 785.346 79.6 787.213 76C789.079 72.4 791.546 68.8 794.613 65.2C793.146 66.5333 790.613 68.8 787.013 72C783.546 75.0667 779.546 78.7333 775.013 83C770.479 87.2667 765.746 91.7333 760.813 96.4C756.013 100.933 751.413 105.4 747.013 109.8C742.613 114.2 738.879 118.2 735.813 121.8C732.879 125.267 731.013 128 730.213 130ZM798.963 130C796.696 129.733 794.896 128.467 793.563 126.2C792.229 123.8 791.562 121.533 791.562 119.4C791.562 117.667 792.629 114.867 794.763 111C796.896 107 799.563 102.533 802.763 97.6C806.096 92.5333 809.496 87.5333 812.963 82.6C816.563 77.6667 819.763 73.3333 822.563 69.6C825.363 65.7333 827.296 63.0667 828.363 61.6C825.029 65.3333 822.296 68.4667 820.163 71C818.163 73.4 817.029 74.6 816.763 74.6C816.629 74.6 817.696 72.8667 819.963 69.4C822.363 65.9333 826.429 60 832.163 51.6C833.496 51.6 835.163 52.2 837.163 53.4C839.163 54.6 840.963 56 842.563 57.6C844.296 59.0667 845.163 60.4667 845.163 61.8C843.963 63.6667 842.163 66.1333 839.763 69.2C837.363 72.2667 834.629 75.5333 831.563 79C828.496 82.4667 825.563 85.8667 822.763 89.2C819.963 92.4 817.563 95.2 815.563 97.6C815.963 97.2 817.496 95.9333 820.163 93.8C822.829 91.6667 826.163 89 830.163 85.8C834.163 82.4667 838.363 79.0667 842.763 75.6C847.296 72 851.629 68.6667 855.763 65.6C859.896 62.4 863.429 59.8 866.363 57.8C869.296 55.8 871.163 54.8 871.963 54.8C872.629 54.8 873.563 55.3333 874.763 56.4C875.963 57.4667 877.163 58.8 878.363 60.4C879.696 61.8667 880.696 63.3333 881.363 64.8C882.029 66.1333 882.096 67.0667 881.563 67.6C880.763 68.4 878.829 70.4 875.763 73.6C872.829 76.8 869.363 80.6 865.363 85C861.496 89.4 857.763 93.8 854.163 98.2C850.696 102.467 848.029 106.133 846.163 109.2L860.163 100.4C861.229 99.7333 861.229 99.8 860.163 100.6C859.096 101.4 857.763 102.4 856.163 103.6C854.563 104.8 853.363 105.733 852.563 106.4C852.163 106.8 851.696 107.467 851.163 108.4C850.629 109.2 850.563 109.4 850.963 109C852.963 107.267 855.496 105.333 858.563 103.2C861.629 101.067 864.829 98.9333 868.163 96.8C871.629 94.5333 874.696 92.5333 877.363 90.8C874.963 92 872.629 93.2 870.363 94.4C868.096 95.6 865.696 97 863.163 98.6L865.963 96.6C867.163 95.6667 868.896 94.5333 871.163 93.2C873.429 91.8667 875.696 90.6 877.963 89.4C880.363 88.2 882.163 87.4 883.363 87L877.563 90.8C879.029 90.1333 880.563 89.4667 882.163 88.8C883.763 88 885.429 87.2 887.163 86.4C888.229 86 888.963 85.8 889.363 85.8C890.563 85.8 890.629 86.5333 889.563 88C888.629 89.4667 887.229 90.7333 885.363 91.8C882.429 93.2667 878.963 95.5333 874.963 98.6C870.963 101.667 866.763 105.067 862.363 108.8C858.096 112.533 853.963 116.267 849.963 120C845.963 123.6 842.563 126.8 839.763 129.6C836.963 127.333 835.496 125.067 835.363 122.8C835.229 120.533 835.163 118.533 835.163 116.8V116C835.163 115.6 835.163 115.133 835.163 114.6C835.296 113.933 835.563 113.2 835.963 112.4C835.829 111.733 835.296 111.267 834.363 111C833.429 110.6 833.029 110.133 833.163 109.6C833.696 107.067 834.963 104.133 836.963 100.8C838.963 97.4667 841.229 94 843.763 90.4C846.429 86.8 849.096 83.3333 851.763 80C854.429 76.6667 856.696 73.8 858.563 71.4C860.429 69 861.629 67.3333 862.163 66.4C860.696 67.7333 858.229 70 854.763 73.2C851.296 76.2667 847.296 79.8667 842.763 84C838.363 88 833.763 92.2667 828.963 96.8C824.163 101.333 819.629 105.8 815.363 110.2C811.096 114.467 807.496 118.333 804.563 121.8C801.629 125.267 799.763 128 798.963 130ZM887.222 133.4C886.422 133.4 885.155 132.467 883.422 130.6C881.822 128.867 880.155 126.933 878.422 124.8C876.822 122.533 875.622 120.867 874.822 119.8C876.022 114.6 878.089 109.2 881.022 103.6C884.089 97.8667 887.622 92.2667 891.622 86.8C895.622 81.3333 899.622 76.2667 903.622 71.6C907.755 66.9333 911.355 63 914.422 59.8C912.155 61.5333 909.755 63.8 907.222 66.6C904.689 69.2667 902.955 71.0667 902.022 72C900.422 73.6 898.822 75.2 897.222 76.8C895.622 78.2667 894.155 79.7333 892.822 81.2C896.822 76.2667 900.755 71.7333 904.622 67.6C908.622 63.4667 911.489 60.7333 913.222 59.4C913.622 59 914.155 58.5333 914.822 58C915.622 57.4667 916.489 57.1333 917.422 57L919.022 55.2C922.622 55.3333 926.489 56.4667 930.622 58.6C934.755 60.6 938.289 63.2667 941.222 66.6C944.289 69.8 945.889 73.4667 946.022 77.6C946.022 78.1333 945.755 78.6667 945.222 79.2C944.689 79.6 944.289 79.3333 944.022 78.4C943.089 76.4 942.022 74.6 940.822 73C939.622 71.4 938.289 70.1333 936.822 69.2C935.489 68.4 934.089 68 932.622 68C931.022 68 929.555 68.5333 928.222 69.6C925.555 71.6 922.355 74.6 918.622 78.6C915.022 82.4667 911.355 86.6667 907.622 91.2C904.022 95.7333 900.755 100.133 897.822 104.4C895.022 108.667 893.089 112.2 892.022 115C892.822 114.067 894.222 112.733 896.222 111C898.222 109.267 900.355 107.533 902.622 105.8C904.889 103.933 906.822 102.4 908.422 101.2C908.955 100.8 910.089 100 911.822 98.8C913.555 97.6 915.355 96.3333 917.222 95C919.222 93.6667 920.822 92.6667 922.022 92C922.022 92.2667 921.222 93 919.622 94.2C918.155 95.4 916.355 96.7333 914.222 98.2C912.089 99.6667 910.089 101 908.222 102.2C906.489 103.4 905.422 104.2 905.022 104.6C903.555 105.933 901.822 107.467 899.822 109.2C897.955 110.933 896.222 112.533 894.622 114C893.022 115.467 891.955 116.533 891.422 117.2C891.155 117.733 891.089 118.067 891.222 118.2C891.355 118.333 891.622 118.133 892.022 117.6C893.222 115.867 895.022 114 897.422 112C899.822 110 902.422 108 905.222 106C908.155 103.867 910.755 101.933 913.022 100.2C915.689 98.2 918.089 96.4667 920.222 95C922.489 93.4 924.489 91.9333 926.222 90.6C926.355 87.8 927.355 85.8667 929.222 84.8C931.222 83.7333 932.755 83.4 933.822 83.8C934.622 84.0667 935.822 84.6 937.422 85.4C939.155 86.0667 940.689 86.9333 942.022 88C943.355 88.9333 943.755 90 943.222 91.2C942.289 93.3333 941.555 96.6667 941.022 101.2C940.622 105.6 940.422 109.667 940.422 113.4C940.422 118.733 942.089 121.4 945.422 121.4C947.155 121.4 949.489 120.467 952.422 118.6C953.489 117.933 954.289 117.6 954.822 117.6C955.222 117.6 955.422 117.8 955.422 118.2C955.422 118.733 955.089 119.533 954.422 120.6C953.755 121.533 953.289 122.133 953.022 122.4C951.422 124.133 949.489 125.733 947.222 127.2C945.089 128.533 942.889 129.2 940.622 129.2C939.689 129.2 938.755 129.067 937.822 128.8C936.889 128.533 935.955 128.067 935.022 127.4C931.689 125.133 929.289 121.667 927.822 117C926.489 112.333 925.822 108.333 925.822 105C925.822 104.2 925.822 103.467 925.822 102.8C925.955 102.133 926.089 101.533 926.222 101C924.755 102.2 922.289 104.267 918.822 107.2C915.489 110 911.755 113.2 907.622 116.8C903.489 120.267 899.555 123.533 895.822 126.6C892.089 129.667 889.222 131.933 887.222 133.4ZM961.267 130C959.001 129.733 957.201 128.467 955.867 126.2C954.534 123.8 953.867 121.533 953.867 119.4C953.867 117.667 954.934 114.867 957.067 111C959.201 107 961.867 102.533 965.067 97.6C968.401 92.5333 971.801 87.5333 975.267 82.6C978.867 77.6667 982.067 73.3333 984.867 69.6C987.667 65.7333 989.601 63.0667 990.667 61.6C987.334 65.3333 984.601 68.4667 982.467 71C980.467 73.4 979.334 74.6 979.067 74.6C978.934 74.6 980.001 72.8667 982.267 69.4C984.667 65.9333 988.734 60 994.467 51.6C995.801 51.6 997.467 52.2 999.467 53.4C1001.47 54.6 1003.27 56 1004.87 57.6C1006.6 59.0667 1007.47 60.4667 1007.47 61.8C1006.27 63.6667 1004.47 66.1333 1002.07 69.2C999.667 72.2667 996.934 75.5333 993.867 79C990.801 82.4667 987.867 85.8667 985.067 89.2C982.267 92.4 979.867 95.2 977.867 97.6C978.267 97.2 979.801 95.9333 982.467 93.8C985.134 91.6667 988.467 89 992.467 85.8C996.467 82.4667 1000.67 79.0667 1005.07 75.6C1009.6 72 1013.93 68.6667 1018.07 65.6C1022.2 62.4 1025.73 59.8 1028.67 57.8C1031.6 55.8 1033.47 54.8 1034.27 54.8C1034.93 54.8 1035.87 55.3333 1037.07 56.4C1038.27 57.4667 1039.47 58.8 1040.67 60.4C1042 61.8667 1043 63.3333 1043.67 64.8C1044.33 66.1333 1044.4 67.0667 1043.87 67.6C1043.07 68.4 1041.13 70.4 1038.07 73.6C1035.13 76.8 1031.67 80.6 1027.67 85C1023.8 89.4 1020.07 93.8 1016.47 98.2C1013 102.467 1010.33 106.133 1008.47 109.2L1022.47 100.4C1023.53 99.7333 1023.53 99.8 1022.47 100.6C1021.4 101.4 1020.07 102.4 1018.47 103.6C1016.87 104.8 1015.67 105.733 1014.87 106.4C1014.47 106.8 1014 107.467 1013.47 108.4C1012.93 109.2 1012.87 109.4 1013.27 109C1015.27 107.267 1017.8 105.333 1020.87 103.2C1023.93 101.067 1027.13 98.9333 1030.47 96.8C1033.93 94.5333 1037 92.5333 1039.67 90.8C1037.27 92 1034.93 93.2 1032.67 94.4C1030.4 95.6 1028 97 1025.47 98.6L1028.27 96.6C1029.47 95.6667 1031.2 94.5333 1033.47 93.2C1035.73 91.8667 1038 90.6 1040.27 89.4C1042.67 88.2 1044.47 87.4 1045.67 87L1039.87 90.8C1041.33 90.1333 1042.87 89.4667 1044.47 88.8C1046.07 88 1047.73 87.2 1049.47 86.4C1050.53 86 1051.27 85.8 1051.67 85.8C1052.87 85.8 1052.93 86.5333 1051.87 88C1050.93 89.4667 1049.53 90.7333 1047.67 91.8C1044.73 93.2667 1041.27 95.5333 1037.27 98.6C1033.27 101.667 1029.07 105.067 1024.67 108.8C1020.4 112.533 1016.27 116.267 1012.27 120C1008.27 123.6 1004.87 126.8 1002.07 129.6C999.267 127.333 997.801 125.067 997.667 122.8C997.534 120.533 997.467 118.533 997.467 116.8V116C997.467 115.6 997.467 115.133 997.467 114.6C997.601 113.933 997.867 113.2 998.267 112.4C998.134 111.733 997.601 111.267 996.667 111C995.734 110.6 995.334 110.133 995.467 109.6C996.001 107.067 997.267 104.133 999.267 100.8C1001.27 97.4667 1003.53 94 1006.07 90.4C1008.73 86.8 1011.4 83.3333 1014.07 80C1016.73 76.6667 1019 73.8 1020.87 71.4C1022.73 69 1023.93 67.3333 1024.47 66.4C1023 67.7333 1020.53 70 1017.07 73.2C1013.6 76.2667 1009.6 79.8667 1005.07 84C1000.67 88 996.067 92.2667 991.267 96.8C986.467 101.333 981.934 105.8 977.667 110.2C973.401 114.467 969.801 118.333 966.867 121.8C963.934 125.267 962.067 128 961.267 130ZM1046.93 136C1046.13 136 1044.93 135.6 1043.33 134.8C1041.73 134.133 1040.26 133.2 1038.93 132C1037.73 130.8 1037.13 129.667 1037.13 128.6C1037.13 127.933 1037.46 127.067 1038.13 126L1038.33 125.6C1036.46 123.067 1035.39 121.133 1035.13 119.8C1036.73 113.933 1039.33 108 1042.93 102C1046.53 95.8667 1050.39 90 1054.53 84.4C1052.39 86.5333 1050.39 88.7333 1048.53 91C1046.79 93.1333 1045.26 94.8667 1043.93 96.2C1046.19 92.7333 1049.13 89.0667 1052.73 85.2C1056.33 81.3333 1059.59 77.7333 1062.53 74.4C1061.19 76 1059.86 77.6 1058.53 79.2C1057.19 80.8 1055.86 82.5333 1054.53 84.4C1055.33 83.6 1056.06 82.8 1056.73 82C1057.53 81.2 1058.33 80.4667 1059.13 79.8C1059.93 79 1061.19 77.6667 1062.93 75.8C1064.79 73.9333 1066.79 71.8667 1068.93 69.6C1071.19 67.3333 1073.26 65.2667 1075.13 63.4C1077.13 61.5333 1078.66 60.2667 1079.73 59.6C1081.46 58.4 1081.86 57.8 1080.93 57.8C1080.26 57.8 1079.13 58.4667 1077.53 59.8C1076.06 61.1333 1074.59 62.5333 1073.13 64C1071.79 65.4667 1070.93 66.4 1070.53 66.8L1062.53 74.4C1066.39 70 1069.99 66.0667 1073.33 62.6C1076.79 59 1079.66 56.1333 1081.93 54C1084.73 54.1333 1087.79 54.8667 1091.13 56.2C1094.46 57.4 1097.33 59.2 1099.73 61.6C1103.86 65.4667 1106.33 69.5333 1107.13 73.8C1111.79 67.2667 1116.53 60.6667 1121.33 54C1126.26 47.2 1130.93 40.8 1135.33 34.8C1139.86 28.8 1143.79 23.6 1147.13 19.2C1150.46 14.6667 1152.86 11.3333 1154.33 9.19999C1153.93 8.53333 1153.53 7.93333 1153.13 7.39999C1152.73 6.86666 1152.53 6.39999 1152.53 6C1152.53 5.19999 1153.66 4.86666 1155.93 5C1157.79 5.13333 1159.93 5.93333 1162.33 7.39999C1164.86 8.86666 1166.99 10.5333 1168.73 12.4C1170.46 14.1333 1171.06 15.7333 1170.53 17.2C1168.93 18.8 1166.33 21.6 1162.73 25.6C1159.13 29.6 1154.86 34.3333 1149.93 39.8C1145.13 45.2667 1140.06 51.1333 1134.73 57.4C1129.39 63.5333 1124.19 69.6 1119.13 75.6C1118.33 76.5333 1116.99 78.3333 1115.13 81C1113.26 83.6667 1111.13 86.8667 1108.73 90.6C1106.33 94.2 1103.99 98.0667 1101.73 102.2C1099.59 106.2 1097.79 110.133 1096.33 114C1094.86 117.733 1094.13 120.933 1094.13 123.6C1094.13 127.2 1095.39 129.333 1097.93 130C1099.66 130.533 1100.53 131.067 1100.53 131.6C1100.53 132.267 1099.59 132.6 1097.73 132.6C1096.26 132.6 1094.66 132.333 1092.93 131.8C1089.73 130.867 1087.46 129.333 1086.13 127.2C1084.93 124.933 1084.33 122.467 1084.33 119.8C1084.33 115.8 1085.19 111.667 1086.93 107.4C1088.79 103 1090.53 99.3333 1092.13 96.4C1087.99 100.267 1083.39 104.6 1078.33 109.4C1073.26 114.067 1068.39 118.4 1063.73 122.4C1063.99 122.4 1064.26 122.533 1064.53 122.8C1065.06 123.067 1064.59 123.933 1063.13 125.4C1061.79 126.733 1059.99 128.267 1057.73 130C1055.46 131.6 1053.26 133 1051.13 134.2C1049.13 135.4 1047.73 136 1046.93 136ZM1054.13 120.4C1055.99 119.2 1058.59 117.4 1061.93 115C1065.26 112.467 1068.99 109.6 1073.13 106.4C1077.39 103.067 1081.73 99.6 1086.13 96C1090.53 92.2667 1094.59 88.7333 1098.33 85.4C1097.79 85.1333 1097.53 84.5333 1097.53 83.6C1097.53 82.6667 1097.79 81.6667 1098.33 80.6C1099.53 78.3333 1100.39 76.3333 1100.93 74.6C1101.46 72.8667 1101.73 71.3333 1101.73 70C1101.73 66.8 1100.46 65.2 1097.93 65.2C1095.93 65.2 1093.66 66.2 1091.13 68.2C1088.86 69.9333 1085.99 72.6 1082.53 76.2C1079.06 79.6667 1075.46 83.6 1071.73 88C1068.13 92.2667 1064.73 96.5333 1061.53 100.8C1058.46 104.933 1056.06 108.667 1054.33 112C1052.73 115.2 1052.19 117.533 1052.73 119L1082.93 96.8C1083.19 96.5333 1083.39 96.3333 1083.53 96.2C1083.79 96.0667 1083.93 96 1083.93 96C1084.06 96 1083.79 96.4 1083.13 97.2C1082.46 97.8667 1081.79 98.5333 1081.13 99.2C1079.26 100.667 1076.59 102.733 1073.13 105.4C1069.66 107.933 1066.13 110.533 1062.53 113.2C1059.06 115.733 1056.13 118 1053.73 120C1053.19 120.4 1052.93 120.667 1052.93 120.8C1053.06 120.933 1053.46 120.8 1054.13 120.4ZM1139 131.4C1136.07 131.4 1132.93 130.267 1129.6 128C1126.27 125.733 1123.4 123.067 1121 120C1118.73 116.933 1117.6 114.133 1117.6 111.6C1117.6 106.8 1119 101.667 1121.8 96.2C1124.73 90.6 1128.47 85.1333 1133 79.8C1137.67 74.4667 1142.6 69.7333 1147.8 65.6C1153 61.4667 1158 58.4667 1162.8 56.6C1164.13 56.0667 1165.33 55.7333 1166.4 55.6C1167.47 55.4667 1168.27 55.4 1168.8 55.4C1170.4 55.4 1172.27 56.5333 1174.4 58.8C1176.53 60.9333 1178.47 63.2667 1180.2 65.8C1181.93 68.3333 1182.93 70.2667 1183.2 71.6C1183.2 73.7333 1181.93 76.3333 1179.4 79.4C1177 82.3333 1173.8 85.4 1169.8 88.6C1165.8 91.6667 1161.47 94.5333 1156.8 97.2C1152.27 99.8667 1147.87 102 1143.6 103.6C1139.33 105.067 1135.67 105.733 1132.6 105.6C1130.47 109.467 1129.4 112.667 1129.4 115.2C1129.4 116.533 1129.73 117.733 1130.4 118.8C1131.07 119.733 1132.4 120.133 1134.4 120C1137.6 118.933 1141.6 117 1146.4 114.2C1151.2 111.4 1156.33 108.267 1161.8 104.8C1167.4 101.2 1172.87 97.7333 1178.2 94.4C1183.67 90.9333 1188.53 88.0667 1192.8 85.8C1195.07 84.6 1196.73 84 1197.8 84C1198.73 84 1199.2 84.3333 1199.2 85C1199.2 85.5333 1198.6 86.4 1197.4 87.6C1196.33 88.8 1194.67 90 1192.4 91.2C1191.2 91.8667 1189.87 92.6667 1188.4 93.6C1186.93 94.5333 1185.4 95.6 1183.8 96.8C1180.07 99.4667 1176.07 102.533 1171.8 106C1167.67 109.467 1163.47 112.933 1159.2 116.4C1155.07 119.867 1151.2 122.933 1147.6 125.6C1144.13 128.267 1141.27 130.2 1139 131.4ZM1136.8 99C1140.8 97.5333 1145.07 95.4667 1149.6 92.8C1154.13 90.1333 1158.4 87.3333 1162.4 84.4C1166.4 81.3333 1169.6 78.6 1172 76.2L1173 75.2C1173 74.9333 1172.2 75.4 1170.6 76.6L1153.8 89C1153.67 89.1333 1153.47 89.2 1153.2 89.2C1153.07 89.2 1153.13 89.0667 1153.4 88.8C1153.67 88.4 1154.13 88 1154.8 87.6C1157.47 85.7333 1160.2 83.6667 1163 81.4C1165.8 79 1168.47 76.7333 1171 74.6C1174.2 72.0667 1175.8 70.5333 1175.8 70C1172.73 70 1168.8 71.4667 1164 74.4C1159.2 77.3333 1154.33 81 1149.4 85.4C1144.6 89.8 1140.4 94.3333 1136.8 99ZM1219.75 137C1217.22 137 1214.02 136.067 1210.15 134.2C1206.28 132.333 1202.62 130.067 1199.15 127.4C1195.82 124.733 1193.48 122.333 1192.15 120.2C1190.55 117.4 1189.75 115.067 1189.75 113.2C1189.75 112.133 1190.08 111.6 1190.75 111.6C1191.95 111.6 1193.68 113 1195.95 115.8C1196.88 117 1198.62 118.2 1201.15 119.4C1203.82 120.467 1206.75 121.4 1209.95 122.2C1213.28 123 1216.35 123.4 1219.15 123.4C1219.82 123.4 1220.35 123.4 1220.75 123.4C1221.28 123.4 1221.82 123.333 1222.35 123.2C1222.22 120.133 1220.88 117 1218.35 113.8C1215.82 110.467 1212.88 107 1209.55 103.4C1206.35 99.8 1203.55 96.1333 1201.15 92.4C1199.42 89.7333 1198.55 86.9333 1198.55 84C1198.55 80 1200.15 76.2 1203.35 72.6C1206.55 69 1210.48 65.7333 1215.15 62.8C1216.35 62.1333 1217.55 61.4667 1218.75 60.8C1219.95 60.1333 1221.15 59.5333 1222.35 59C1220.22 59.6667 1218.08 60.4667 1215.95 61.4C1213.82 62.3333 1211.82 63.3333 1209.95 64.4H1209.75C1209.62 64.4 1209.75 64.2667 1210.15 64C1210.55 63.6 1210.88 63.3333 1211.15 63.2C1216.48 59.7333 1222.08 57.3333 1227.95 56C1233.95 54.6667 1239.22 54 1243.75 54C1244.82 54 1245.82 54.0667 1246.75 54.2C1247.68 54.2 1248.55 54.2667 1249.35 54.4C1249.75 54.5333 1250.02 54.7333 1250.15 55C1250.28 55.2667 1250.02 55.4 1249.35 55.4L1252.75 56.6C1253.95 57.1333 1255.02 58.8667 1255.95 61.8C1257.02 64.6 1257.75 67.1333 1258.15 69.4C1258.28 69.2667 1258.35 69.1333 1258.35 69C1258.62 68.3333 1258.75 67.8 1258.75 67.4C1258.75 66.8667 1258.82 66.3333 1258.95 65.8C1259.08 65.5333 1259.42 66 1259.95 67.2C1260.48 68.2667 1260.95 69.5333 1261.35 71C1261.88 72.3333 1262.15 73.4667 1262.15 74.4C1262.02 76.8 1261.15 79.4 1259.55 82.2C1257.95 85 1256.22 87.2 1254.35 88.8C1252.62 90.4 1251.15 90.7333 1249.95 89.8C1251.42 88.2 1252.55 86.3333 1253.35 84.2C1250.42 88.3333 1246.88 91.9333 1242.75 95C1238.75 97.9333 1235.55 99.4 1233.15 99.4C1231.95 99.4 1231.35 99.0667 1231.35 98.4C1231.35 98 1231.62 97.4667 1232.15 96.8C1232.82 96.1333 1233.28 95.7333 1233.55 95.6C1234.88 94.8 1236.55 93.4667 1238.55 91.6C1240.55 89.6 1242.55 87.3333 1244.55 84.8C1246.55 82.2667 1248.28 79.8 1249.75 77.4C1251.35 75 1252.42 73 1252.95 71.4C1252.95 69.1333 1251.35 68 1248.15 68C1246.28 68 1244.08 68.3333 1241.55 69C1239.15 69.6667 1236.68 70.4667 1234.15 71.4C1229.22 73.1333 1224.68 75.4667 1220.55 78.4C1216.42 81.3333 1214.35 84.5333 1214.35 88C1214.35 89.3333 1214.75 90.7333 1215.55 92.2C1218.08 96.0667 1220.68 100.067 1223.35 104.2C1226.02 108.333 1228.28 112.133 1230.15 115.6C1232.02 118.933 1232.95 121.533 1232.95 123.4C1232.95 124.2 1232.35 125.333 1231.15 126.8C1230.08 128.267 1228.75 129.733 1227.15 131.2C1225.68 132.8 1224.22 134.133 1222.75 135.2C1221.42 136.4 1220.42 137 1219.75 137Z" fill="#7B4835"/>
</svg>
