<?xml version="1.0" encoding="utf-8"?>
<!-- Generator: Adobe Illustrator 28.1.0, SVG Export Plug-In . SVG Version: 6.00 Build 0)  -->
<svg version="1.1" id="Camada_1" xmlns="http://www.w3.org/2000/svg" xmlns:xlink="http://www.w3.org/1999/xlink" x="0px" y="0px"
	 viewBox="0 0 300 300" style="enable-background:new 0 0 300 300;" xml:space="preserve">
<style type="text/css">
	.st0{fill:#765EA5;}
</style>
<g>
	<path class="st0" d="M209.17,214.19c-14.64,15.25-32.15,25.77-52.69,30.9c-20.93,5.23-42.07,6.47-62.67-0.97
		c-29.55-10.68-47.81-31.99-52.62-62.91c-5.36-34.43,6.43-62.82,35.1-83.32c13.46-9.63,28.92-13.73,45.4-13.99
		c8.11-0.13,16.22-0.09,24.33-0.02c20.91,0.18,38.8-7.07,53.78-21.62c0.73-0.71,1.54-1.32,3.02-2.59
		c-0.31,13.16-5.52,23.84-10.77,34.87c12.96-1.65,23.93-7.36,33.86-15.31c9.97-7.98,17.29-18.09,22.63-29.71
		c0.4-0.06,0.8-0.11,1.19-0.17c1.67,3.69,3.54,7.31,4.98,11.09c9.79,25.78,8.19,51.53-1.39,76.83
		c-14.17,37.44-40.47,63.02-78.08,76.6c-20.04,7.24-40.84,9.13-61.9,5.64c-22.29-3.69-41.47-24.64-44.12-47.21
		c-2.83-24.07,12.67-48.8,38.11-56.86c23.32-7.4,50.77,3.21,62.86,24.35c5.44,9.51,8.26,19.64,7.39,30.63
		c-0.68,8.53-5.96,13.51-13.17,12.65c-5.59-0.67-9.58-4.38-9.99-10.48c-0.55-8.08-0.49-16.2-0.57-24.3
		c-0.11-11.44-5.46-16.83-16.94-16.85c-5.68-0.01-11.36-0.07-17.03,0.02c-16.64,0.28-30.04,11.6-33.45,28.17
		c-3.09,14.98,5.34,31.07,20.21,37.23c12.97,5.37,25.14,3.22,35.99-5.82c1.03-0.86,1.98-1.8,2.94-2.68c2.4,2.05,4.47,4.26,6.92,5.85
		c15.27,9.87,37.33-0.44,39.16-18.63c3.38-33.61-16.08-65.17-49.87-75.23c-30.83-9.18-65.39,5.7-80.32,34.91
		c-22.28,43.59,8.28,96.84,57.19,100.16C151.08,237.59,181.14,230.66,209.17,214.19z"/>
	<path class="st0" d="M141.56,158.16c0,3.37,0.32,6.77-0.06,10.1c-1.22,10.79-10.1,18.01-21.08,17.42
		c-10.03-0.54-18.36-9.29-18.58-19.51c-0.21-10.21,8-19.19,18.59-19.86c6.05-0.38,12.14-0.07,18.2-0.18
		c2.26-0.04,3.18,0.9,3.12,3.12c-0.08,2.97-0.02,5.93-0.02,8.9C141.68,158.16,141.62,158.16,141.56,158.16z"/>
</g>
</svg>
