<?xml version="1.0" encoding="utf-8"?>
<!-- Generator: Adobe Illustrator 28.1.0, SVG Export Plug-In . SVG Version: 6.00 Build 0)  -->
<svg version="1.1" id="Camada_1" xmlns="http://www.w3.org/2000/svg" xmlns:xlink="http://www.w3.org/1999/xlink" x="0px" y="0px"
	 viewBox="0 0 300 300" style="enable-background:new 0 0 300 300;" xml:space="preserve">
<style type="text/css">
	.st0{fill:#765EA5;}
</style>
<g>
	<path class="st0" d="M62.38,50.27c58.56,0,116.81,0,175.58,0c-0.33,4.58-0.58,8.7-0.93,12.81c-2.12,24.48-4.29,48.96-6.4,73.45
		c-1.41,16.28-2.72,32.58-4.13,48.86c-1.22,14.1-2.58,28.18-3.74,42.28c-0.17,2.08-1.07,2.69-2.9,3.21
		c-21.3,6.11-42.58,12.28-63.84,18.52c-3.25,0.96-6.33,1.23-9.66,0.28c-22.36-6.39-44.76-12.64-67.1-19.07
		c-1.09-0.31-2.46-1.93-2.56-3.04c-2.16-25.69-4.09-51.4-6.2-77.1c-1.81-22.08-3.82-44.15-5.65-66.23
		C63.92,73,63.21,61.73,62.38,50.27z M146.43,110.24c0.02,0.24,0.04,0.48,0.06,0.72c-1.3,0.56-2.59,1.13-3.89,1.69
		c-14.2,6.12-28.38,12.3-42.64,18.29c-2.37,0.99-2.83,2.27-2.44,4.52c0.84,4.86,1.78,9.71,2.21,14.61c0.27,3.06,1.53,3.72,4.36,3.72
		c22.95-0.06,45.91,0.01,68.86,0.05c1.28,0,2.55,0,4.01,0c-0.86,9.32-1.6,18.14-2.59,26.94c-0.09,0.84-1.62,1.96-2.64,2.19
		c-7.28,1.59-14.59,3.02-21.91,4.41c-0.91,0.17-1.94,0.02-2.86-0.21c-6.28-1.56-12.51-3.31-18.82-4.72
		c-2.59-0.58-3.3-2.01-3.42-4.36c-0.18-3.5-0.65-6.99-0.84-10.5c-0.11-2.1-1.03-2.86-3.1-2.83c-5.16,0.09-10.32,0.02-15.49,0.03
		c-4.16,0.01-4.27,0.12-3.9,4.28c0.82,9.28,1.75,18.56,2.4,27.85c0.18,2.51,1.12,3.62,3.49,4.26c13.96,3.8,27.88,7.76,41.84,11.58
		c1.19,0.33,2.66,0.33,3.83-0.03c13.08-4.1,26.09-8.39,39.19-12.4c3.04-0.93,4.02-2.52,4.24-5.54c1.22-16.29,2.66-32.56,4-48.84
		c0.41-5,0.77-10,1.18-15.44c-14.87,0-29.46,0-44.06,0c0.52-0.83,1.09-1.12,1.67-1.37c14.48-6.03,28.93-12.11,43.46-18.01
		c2.44-0.99,3.37-2.21,3.27-4.83c-0.2-5.04-0.18-10.1-0.01-15.15c0.09-2.7-0.77-3.61-3.53-3.6c-35.25,0.11-70.51,0.13-105.76,0.1
		c-2.68,0-3.48,0.81-3.01,3.48c0.93,5.28,1.75,10.6,2.33,15.93c0.28,2.58,1.38,3.26,3.8,3.22c7.58-0.12,15.16-0.04,22.73-0.04
		C130.46,110.24,138.45,110.24,146.43,110.24z"/>
</g>
</svg>
