<?xml version="1.0" encoding="utf-8"?>
<!-- Generator: Adobe Illustrator 28.1.0, SVG Export Plug-In . SVG Version: 6.00 Build 0)  -->
<svg version="1.1" id="Camada_1" xmlns="http://www.w3.org/2000/svg" xmlns:xlink="http://www.w3.org/1999/xlink" x="0px" y="0px"
	 viewBox="0 0 300 300" style="enable-background:new 0 0 300 300;" xml:space="preserve">
<style type="text/css">
	.st0{fill:#A259FF;}
</style>
<g>
	<path class="st0" d="M250.1,87.2c0-0.6,0-1.2,0-1.7c-0.6-0.6-0.6-0.6-1.1-1.2c0-0.6,0-0.6,0-1.2c-0.6,0-0.6,0-0.6,0
		c-0.6-0.6-0.6-1.2-1.1-1.2c-0.6-0.6-1.1-0.6-1.1-0.6c-0.6-0.6-1.1-0.6-1.7-0.6s-1.1-0.6-1.7-0.6l0,0h-184c0,0,0,0-0.6,0
		s-0.6,0.6-1.1,0.6s-1.1,0-1.7,0.6c-0.6,0-0.6,0-1.1,0.6c-0.6,0-1.1,0.6-1.1,1.2h-0.6c0,0.6,0,0.6-0.6,1.2c0,0.6-0.6,0.6-0.6,1.2
		c0,0.6,0,1.2-0.6,1.7c0,0.6,0,0.6,0,1.2v128.3c0,4.6,3.4,8.1,8,8.1h184.1c4.6,0,8-3.4,8-8.1V88.4C250.6,87.8,250.1,87.8,250.1,87.2
		L250.1,87.2z M221,96.4L221,96.4l-70.7,58.7L80.3,96.4C80.3,96.4,221,96.4,221,96.4z M66.6,208.6L66.6,208.6v-103l79.2,66.2
		c1.1,1.1,2.9,1.7,4.6,1.7c2.3,0,4-0.6,5.1-1.7l79.2-66.2v103L66.6,208.6L66.6,208.6z"/>
	<path class="st0" d="M250.1,87.2c0-0.6,0-1.2,0-1.7c-0.6-0.6-0.6-0.6-1.1-1.2c0-0.6,0-0.6,0-1.2c-0.6,0-0.6,0-0.6,0
		c-0.6-0.6-0.6-1.2-1.1-1.2c-0.6-0.6-1.1-0.6-1.1-0.6c-0.6-0.6-1.1-0.6-1.7-0.6s-1.1-0.6-1.7-0.6l0,0h-184c0,0,0,0-0.6,0
		s-0.6,0.6-1.1,0.6s-1.1,0-1.7,0.6c-0.6,0-0.6,0-1.1,0.6c-0.6,0-1.1,0.6-1.1,1.2h-0.6c0,0.6,0,0.6-0.6,1.2c0,0.6-0.6,0.6-0.6,1.2
		c0,0.6,0,1.2-0.6,1.7c0,0.6,0,0.6,0,1.2v128.3c0,4.6,3.4,8.1,8,8.1h184.1c4.6,0,8-3.4,8-8.1V88.4C250.6,87.8,250.1,87.8,250.1,87.2
		L250.1,87.2z M221,96.4L221,96.4l-70.7,58.7L80.3,96.4C80.3,96.4,221,96.4,221,96.4z M66.6,208.6L66.6,208.6v-103l79.2,66.2
		c1.1,1.1,2.9,1.7,4.6,1.7c2.3,0,4-0.6,5.1-1.7l79.2-66.2v103L66.6,208.6L66.6,208.6z"/>
</g>
</svg>
