<?xml version="1.0" encoding="utf-8"?>
<!-- Generator: Adobe Illustrator 28.1.0, SVG Export Plug-In . SVG Version: 6.00 Build 0)  -->
<svg version="1.1" id="Camada_1" xmlns="http://www.w3.org/2000/svg" xmlns:xlink="http://www.w3.org/1999/xlink" x="0px" y="0px"
	 viewBox="0 0 300 300" style="enable-background:new 0 0 300 300;" xml:space="preserve">
<style type="text/css">
	.st0{fill:#765EA5;}
</style>
<g>
	<path class="st0" d="M131.04,157.11c-6.15,3.62-12.08,7.09-17.99,10.59c-11.02,6.52-22,13.1-33.07,19.54
		c-0.89,0.52-2.54,0.54-3.46,0.07c-3.3-1.7-6.4-3.8-9.67-5.57c-2.03-1.09-2.17-2.29-1.18-4.24c10.26-20.18,20.47-40.4,30.68-60.61
		c5.87-11.62,11.68-23.27,17.66-34.83c0.85-1.64,2.27-3.28,3.84-4.21c15.46-9.11,30.98-18.12,46.6-26.97
		c1.3-0.74,3.65-0.63,5.07,0.04c3.96,1.84,7.74,4.09,11.46,6.39c1.1,0.68,2.16,1.92,2.56,3.13c5.01,15.04,9.85,30.14,14.84,45.19
		c0.63,1.9-0.04,2.72-1.49,3.71c-13.01,8.89-17.81,23.33-12.71,37.98c4.43,12.73,16.72,21.26,30.66,20.91
		c3.1-0.08,4.41,0.85,5.34,3.76c4.74,14.9,9.65,29.74,14.64,44.56c0.82,2.44,0.32,3.77-1.85,5.08
		c-15.28,9.2-30.52,18.46-45.73,27.79c-2.17,1.33-3.91,1.29-5.99-0.16c-4.04-2.81-8.17-5.52-12.39-8.05
		c-2.6-1.56-4.08-3.71-5.21-6.44c-10.51-25.36-21.12-50.68-31.7-76.01C131.8,158.37,131.55,158.01,131.04,157.11z M180.44,244.67
		c-0.36-1.57-0.49-2.4-0.75-3.18c-7.04-21.51-14.08-43.02-21.14-64.53c-8.46-25.76-17.11-51.46-25.32-77.3
		c-2.07-6.53-4.32-12.28-11.45-14.56c-0.71-0.23-1.35-0.73-1.97-1.17c-1.72-1.19-2.75-0.94-3.77,1.09
		c-13.66,27.17-27.42,54.29-41.13,81.43c-2.06,4.07-4.06,8.18-6.18,12.46c2.13,1.32,4.05,2.35,5.8,3.62
		c2.34,1.69,3.73,1.31,5.49-1.13c12.79-17.63,25.74-35.13,38.67-52.65c2.16-2.94,3.09-2.77,4.56,0.72c2.2,5.24,4.38,10.5,6.57,15.75
		c11.85,28.35,24.02,56.58,35.36,85.13C168.16,237.86,174.25,240.35,180.44,244.67z M178.07,59.43c-3.38-1.94-6.11-3.72-9.03-5.07
		c-1.14-0.53-3.01-0.59-4.06,0c-10.67,5.99-21.25,12.16-31.84,18.29c-4.19,2.43-8.34,4.9-13.07,7.68c3.41,1.93,6.22,3.37,8.87,5.06
		c1.61,1.03,2.81,0.92,4.45-0.05c9.7-5.71,19.5-11.26,29.24-16.89C167.59,65.58,172.55,62.66,178.07,59.43z"/>
	<path class="st0" d="M214.28,116.76c10.91,0.04,19.51,8.68,19.52,19.62c0.01,10.97-8.87,19.76-19.87,19.65
		c-10.84-0.11-19.57-8.89-19.56-19.68C194.38,125.34,203.14,116.72,214.28,116.76z M214.11,119.91c-6.57,0.1-11.54,2.8-14.67,8.45
		c-3.18,5.75-3.04,11.57,0.66,17.01c0.8,1.18,2.79,2.26,4.19,2.21c8.37-0.32,15.04-4.03,19.88-10.91c6.96-9.9,2.58-13.69-7.59-16.55
		C215.75,119.89,214.84,119.96,214.11,119.91z"/>
</g>
</svg>
