<?xml version="1.0" encoding="utf-8"?>
<!-- Generator: Adobe Illustrator 28.1.0, SVG Export Plug-In . SVG Version: 6.00 Build 0)  -->
<svg version="1.1" id="Camada_1" xmlns="http://www.w3.org/2000/svg" xmlns:xlink="http://www.w3.org/1999/xlink" x="0px" y="0px"
	 viewBox="0 0 300 300" style="enable-background:new 0 0 300 300;" xml:space="preserve">
<style type="text/css">
	.st0{fill:#765EA5;}
</style>
<g>
	<path class="st0" d="M250.16,250.45c-66.79,0-133.29,0-199.97,0c0-66.72,0-133.27,0-200c66.74,0,133.32,0,199.97,0
		C250.16,117.23,250.16,183.86,250.16,250.45z M168.79,215.63c2.37,3.08,4.15,6.18,6.65,8.49c12.61,11.61,27.37,13.28,42.99,7.9
		c8.96-3.09,14.68-9.73,15.86-19.48c1.27-10.5-1.37-19.73-10.6-25.72c-5.82-3.77-12.32-6.48-18.48-9.72
		c-2.89-1.52-5.89-2.92-8.51-4.83c-2.79-2.03-3.62-5.13-2.77-8.49c0.85-3.34,3.21-4.98,6.56-5.52c5.02-0.8,9.01,0.74,11.98,4.89
		c0.62,0.86,1.33,1.66,2.19,2.74c4.88-3.27,9.56-6.4,14.45-9.68c-1.05-1.56-1.81-2.87-2.73-4.05c-7.89-10.13-18.64-12.47-30.53-10.4
		c-19.47,3.4-25.02,22.47-18.34,36.58c3.38,7.14,9.57,11.14,16.36,14.42c5.49,2.66,11.04,5.21,16.51,7.92
		c3.52,1.75,5.56,4.58,5.16,8.68c-0.36,3.73-3.15,6.72-7.47,7.71c-7.44,1.71-14.08,0.17-19.43-5.56c-1.41-1.5-2.63-3.18-4.15-5.04
		C179.38,209.45,174.33,212.4,168.79,215.63z M138.6,233.59c0-24.92,0-49.54,0-74.57c8.87,0,17.43,0,25.94,0c0-5.71,0-10.99,0-16.45
		c-23.68,0-47.1,0-70.75,0c0,5.57,0,10.86,0,16.56c8.58,0,17.04,0,25.92,0c0,25.03,0,49.66,0,74.46
		C126.1,233.59,132.06,233.59,138.6,233.59z"/>
</g>
</svg>
