<?xml version="1.0" encoding="utf-8"?>
<!-- Generator: Adobe Illustrator 28.1.0, SVG Export Plug-In . SVG Version: 6.00 Build 0)  -->
<svg version="1.1" id="Camada_1" xmlns="http://www.w3.org/2000/svg" xmlns:xlink="http://www.w3.org/1999/xlink" x="0px" y="0px"
	 viewBox="0 0 300 300" style="enable-background:new 0 0 300 300;" xml:space="preserve">
<style type="text/css">
	.st0{fill:#765EA5;}
</style>
<g>
	<path class="st0" d="M149.49,250.45c-10.31-6.19-20.57-12.47-30.94-18.56c-16.19-9.52-32.45-18.92-49.18-28.66
		c1.2-0.88,2.01-1.61,2.94-2.15c8.24-4.81,16.44-9.69,24.8-14.28c1.3-0.72,3.69-0.67,5.01,0.06c9.01,4.96,17.86,10.2,26.78,15.33
		c4.24,2.44,5.36,1.9,5.38-2.78c0.06-13.29,0.14-26.58-0.12-39.87c-0.04-1.82-1.5-4.33-3.06-5.27
		c-11.35-6.86-22.88-13.44-34.39-20.04c-3.73-2.14-4.76-1.55-4.79,2.72c-0.06,10.3-0.1,20.61,0.03,30.91
		c0.04,2.67-0.61,4.29-3.12,5.66c-7.97,4.37-15.76,9.07-23.64,13.63c-1.11,0.64-2.29,1.16-3.85,1.95c-0.1-1.8-0.23-3.09-0.23-4.38
		c-0.01-28.07,0-56.15-0.03-84.22c0-2.29,0.01-4.16,2.52-5.58c25.27-14.36,50.45-28.87,75.67-43.32c0.61-0.35,1.29-0.55,2.68-1.13
		c0,8.05-0.68,15.67,0.18,23.11c1.01,8.74-2.21,13.68-10.11,17.14c-6.78,2.98-12.99,7.27-19.42,11.05c-4,2.35-4.03,3.9-0.04,6.23
		c11.45,6.68,22.89,13.4,34.51,19.79c1.72,0.95,4.86,0.99,6.57,0.05c11.62-6.39,23.06-13.12,34.5-19.82
		c4.09-2.4,4.09-3.82,0.02-6.21c-8.48-4.99-16.98-9.95-25.57-14.74c-2.79-1.56-4-3.42-3.93-6.72c0.21-9.68,0.07-19.38,0.07-29.55
		c1.34,0.48,2.31,0.68,3.12,1.15c23.48,13.6,46.92,27.26,70.42,40.83c4.56,2.63,6.97,5.53,6.86,11.58
		c-0.49,26.72-0.21,53.45-0.21,80.18c0,1.6,0,3.21,0,5.7c-10.76-6.23-20.88-12.09-31.36-18.15c0-12.68,0-25.46,0-38.93
		c-1.61,0.61-2.71,0.86-3.64,1.39c-11.5,6.61-23.03,13.18-34.4,20.01c-1.63,0.98-3.47,3.25-3.51,4.96
		c-0.28,13.88-0.17,27.77-0.13,41.66c0,0.84,0.34,1.67,0.67,3.16c1.74-0.78,3.2-1.29,4.52-2.05c8.8-5.03,17.52-10.21,26.4-15.1
		c1.4-0.77,3.86-1.03,5.16-0.31c9.51,5.25,18.86,10.81,28.73,16.54c-12.21,7.07-24.03,13.89-35.83,20.75
		c-15.06,8.75-30.1,17.54-45.15,26.31C150.09,250.45,149.79,250.45,149.49,250.45z"/>
</g>
</svg>
