<?xml version="1.0" encoding="utf-8"?>
<!-- Generator: Adobe Illustrator 28.1.0, SVG Export Plug-In . SVG Version: 6.00 Build 0)  -->
<svg version="1.1" id="Camada_1" xmlns="http://www.w3.org/2000/svg" xmlns:xlink="http://www.w3.org/1999/xlink" x="0px" y="0px"
	 viewBox="0 0 300 300" style="enable-background:new 0 0 300 300;" xml:space="preserve">
<style type="text/css">
	.st0{fill:#765EA5;}
</style>
<g>
	<path class="st0" d="M58.99,150.5c0-13.46,0-26.93,0-40.39c0-7.1,3-12.56,9.19-16.05c24.48-13.8,48.97-27.58,73.51-41.26
		c5.67-3.16,11.6-3.06,17.27,0.11c24.32,13.6,48.6,27.27,72.89,40.91c6.45,3.63,9.6,9.15,9.6,16.54
		c-0.02,26.69-0.03,53.39,0.01,80.08c0.01,7.4-3.07,12.99-9.5,16.61c-24.49,13.78-48.97,27.57-73.53,41.21
		c-5.42,3.01-11.24,2.91-16.65-0.1c-24.34-13.56-48.6-27.27-72.91-40.89c-6.85-3.84-9.99-9.61-9.91-17.44
		C59.08,176.72,58.99,163.61,58.99,150.5z M191.71,119.15c-9.46-14.79-32.38-25.76-55.19-19.34c-24.09,6.78-40.03,28.78-38.76,53.25
		c1.26,24.33,19.11,44.57,43.14,49.05c22.47,4.18,43.65-7.98,50.65-20.41c-4.57-2.66-9.3-5.08-13.66-8.06
		c-3.53-2.41-5.87-2.31-9.34,0.6c-11.5,9.67-29.21,8.24-39.93-2.67c-10.67-10.87-11.59-28.09-2.14-39.75
		c11.29-13.92,30.29-15.52,44.04-3.8c0.93,0.79,2.9,1.49,3.76,1.04C180.1,125.97,185.77,122.57,191.71,119.15z M193.27,154.43
		c-1.06,0.07-1.75,0.15-2.44,0.16c-6.36,0.13-6.28,0.13-6.09,6.37c0.06,2.12,0.77,3.03,2.9,2.92c1.83-0.09,3.67-0.02,4.49-0.02
		c3.24,2.81-2.06,8.44,4.61,8.6c1.75,0.04,4.74,0.33,5.04-0.39c0.99-2.36,1-5.12,1.42-7.88c2.49,0,4.98,0,7.6,0
		c0.07,1.24,0.13,2.17,0.18,3.09c0.06,1.41-0.24,3.89,0.23,4.05c2.2,0.72,4.62,1.01,6.95,0.99c0.63-0.01,1.61-1.61,1.77-2.59
		c0.29-1.8,0.08-3.67,0.08-5.41c3.19-0.42,6.92,0.15,8.17-1.35c1.42-1.7,0.61-5.25,0.8-8.44c-3.32,0-5.97,0-8.68,0
		c0-2.94,0-5.46,0-8.38c2.94,0,5.59,0,8.6,0c0-2.27-0.09-4.14,0.02-6c0.14-2.26-0.72-3.27-3.06-3.11c-1.83,0.13-3.67,0.03-5.65,0.03
		c-0.17-3.18-0.31-5.81-0.44-8.39c-3.11,0-5.77,0-8.63,0c-0.13,2.86-0.25,5.5-0.37,8.12c-2.85,0-5.26,0-7.12,0
		c-2.79-2.5,2.17-7.67-3.78-8.31c-1.85-0.2-5.05-0.48-5.4,0.28c-1.08,2.4-1.09,5.27-1.52,7.95c-8.14,1.25-8.21,1.25-8.17,3.91
		c0.03,1.74-0.19,4.74,0.49,4.98c2.42,0.87,5.18,0.81,7.97,1.12C193.27,149.23,193.27,151.66,193.27,154.43z"/>
	<path class="st0" d="M203.07,146.53c2.58,0,4.99,0,7.65,0c0,2.61,0,5.11,0,7.85c-2.51,0-4.91,0-7.65,0
		C203.07,151.93,203.07,149.44,203.07,146.53z"/>
</g>
</svg>
