<?xml version="1.0" encoding="utf-8"?>
<!-- Generator: Adobe Illustrator 28.1.0, SVG Export Plug-In . SVG Version: 6.00 Build 0)  -->
<svg version="1.1" id="Camada_1" xmlns="http://www.w3.org/2000/svg" xmlns:xlink="http://www.w3.org/1999/xlink" x="0px" y="0px"
	 viewBox="0 0 300 300" style="enable-background:new 0 0 300 300;" xml:space="preserve">
<style type="text/css">
	.st0{fill:#765EA5;}
</style>
<g>
	<path class="st0" d="M62.47,50.31c1.61,0,2.78,0,3.96,0c55.55,0.09,111.1,0.17,166.65,0.26c4.63,0.01,4.81,0.03,4.44,4.69
		c-0.88,11.15-1.96,22.28-2.92,33.42c-1.46,17.04-2.83,34.08-4.32,51.11c-1.42,16.26-2.99,32.52-4.41,48.78
		c-1.01,11.58-1.98,23.16-2.78,34.75c-0.45,6.55-0.28,6.56-6.49,8.37c-20.3,5.93-40.62,11.83-60.9,17.83
		c-3.27,0.97-6.38,1.08-9.66,0.14c-22.24-6.33-44.51-12.57-66.73-18.98c-1.1-0.32-2.5-1.94-2.6-3.06
		c-1.07-11.9-1.85-23.83-2.83-35.73c-1.43-17.48-3-34.94-4.44-52.42c-0.98-11.91-1.83-23.83-2.79-35.74
		c-1.24-15.29-2.54-30.58-3.79-45.87C62.69,55.58,62.62,53.28,62.47,50.31z M118.63,109.16c1.88,0,3.28,0,4.67,0
		c25.47,0.04,50.94,0.02,76.41,0.18c3.04,0.02,4.37-0.89,4.58-3.94c0.34-4.91,1.02-9.8,1.4-14.71c0.37-4.7,0.28-4.72-4.48-4.72
		c-34.47,0.05-68.94,0.11-103.41,0.17c-0.55,0-1.1,0.05-1.65,0.01c-2.37-0.14-3.01,1.03-2.77,3.25c0.81,7.29,1.55,14.6,2.23,21.9
		c1.23,13.09,2.52,26.18,3.51,39.29c0.25,3.34,1.4,4.17,4.6,4.16c23.05-0.1,46.11,0.02,69.16-0.03c2.49-0.01,3.65,0.51,3.34,3.29
		c-0.76,6.85-1.37,13.73-1.96,20.6c-0.23,2.66-1.18,4.35-4.09,5.03c-6.18,1.46-12.25,3.37-18.41,4.9c-1.61,0.4-3.5,0.44-5.09,0
		c-6.55-1.78-13.02-3.86-19.56-5.69c-1.91-0.53-2.63-1.47-2.72-3.43c-0.17-3.94-0.74-7.86-0.9-11.79c-0.1-2.42-1.27-2.84-3.36-2.8
		c-5.38,0.1-10.77,0.2-16.13-0.03c-3.06-0.13-3.76,1-3.48,3.81c0.96,9.37,1.93,18.75,2.51,28.14c0.19,3.1,1.3,4.39,4.18,5.16
		c13.33,3.59,26.61,7.38,39.92,11.02c1.32,0.36,2.9,0.51,4.19,0.16c13.85-3.76,27.66-7.69,41.51-11.45
		c2.18-0.59,2.99-1.69,3.16-3.86c0.52-6.77,1.21-13.52,1.83-20.28c1.28-13.96,2.53-27.93,3.85-41.88c0.38-3.97,0.16-4.34-3.9-4.34
		c-15.04-0.01-30.08-0.01-45.12,0c-9.66,0.01-19.32,0.01-28.98,0.13c-2.19,0.03-3.13-0.59-3.21-2.93c-0.1-3.05-0.69-6.09-0.99-9.14
		C119.15,116.1,118.93,112.87,118.63,109.16z"/>
</g>
</svg>
