<?xml version="1.0" encoding="utf-8"?>
<!-- Generator: Adobe Illustrator 28.1.0, SVG Export Plug-In . SVG Version: 6.00 Build 0)  -->
<svg version="1.1" id="Camada_1" xmlns="http://www.w3.org/2000/svg" xmlns:xlink="http://www.w3.org/1999/xlink" x="0px" y="0px"
	 viewBox="0 0 300 300" style="enable-background:new 0 0 300 300;" xml:space="preserve">
<style type="text/css">
	.st0{fill:#765EA5;}
</style>
<path class="st0" d="M50.17,250.45c0-66.67,0-133.33,0-200c66.67,0,133.33,0,200,0c0,66.67,0,133.33,0,200
	C183.51,250.45,116.84,250.45,50.17,250.45z M169.04,215.47c3.05,5.91,7.22,10.62,12.89,13.79c11.34,6.32,23.28,7,35.49,3.01
	c5.9-1.93,10.62-5.57,13.73-11.06c2.55-4.49,3.3-9.37,3.09-14.46c-0.31-7.74-3.3-14.13-9.38-19.02c-4.33-3.48-9.26-5.92-14.3-8.16
	c-3.52-1.57-7.09-3.05-10.54-4.76c-1.65-0.82-3.21-1.93-4.57-3.17c-3.51-3.23-3.54-11.43,3.5-13.51c2.25-0.66,4.5-0.58,6.75-0.03
	c3.17,0.78,5.36,2.85,7.14,5.46c0.46,0.67,0.88,1.36,1.37,2.12c4.88-3.13,9.69-6.22,14.49-9.3c-0.04-0.17-0.04-0.27-0.08-0.35
	c-3.22-5.62-7.48-10.15-13.64-12.52c-7.07-2.72-14.34-2.95-21.64-1.11c-11.39,2.88-18.48,11.89-18.67,23.43
	c-0.16,9.71,3.62,17.43,11.77,22.77c3.08,2.02,6.42,3.67,9.74,5.28c4.12,2,8.39,3.71,12.5,5.72c1.59,0.78,3.09,1.89,4.39,3.11
	c2.27,2.12,2.82,4.91,2.19,7.86c-0.73,3.4-3.15,5.35-6.27,6.41c-4.74,1.61-9.48,1.37-14.11-0.46c-4.36-1.73-7.37-5.03-9.88-8.85
	c-0.22-0.33-0.45-0.65-0.71-1.03C179.18,209.6,174.15,212.51,169.04,215.47z M102.83,217.44c0.09,0.24,0.13,0.42,0.22,0.59
	c3.09,6.22,7.58,11.08,14.02,13.84c8.35,3.58,16.93,3.72,25.5,0.95c7.29-2.36,12.09-7.37,14.58-14.61c1.4-4.1,1.78-8.33,1.78-12.62
	c0-20.67,0-41.34,0-62.01c0-0.37-0.03-0.75-0.05-1.14c-6.26,0-12.45,0-18.73,0c0,0.54,0,1.01,0,1.48c0,20.48,0.01,40.96-0.01,61.44
	c0,1.64-0.1,3.3-0.35,4.91c-0.51,3.24-1.88,6.02-5.31,6.97c-5.75,1.6-10.09,0.3-13.26-4.05c-0.93-1.28-1.72-2.65-2.58-3.98
	c-0.19-0.29-0.36-0.59-0.58-0.97C112.95,211.32,107.9,214.37,102.83,217.44z"/>
</svg>
