<?xml version="1.0" encoding="utf-8"?>
<!-- Generator: Adobe Illustrator 28.1.0, SVG Export Plug-In . SVG Version: 6.00 Build 0)  -->
<svg version="1.1" id="Camada_1" xmlns="http://www.w3.org/2000/svg" xmlns:xlink="http://www.w3.org/1999/xlink" x="0px" y="0px"
	 viewBox="0 0 300 300" style="enable-background:new 0 0 300 300;" xml:space="preserve">
<style type="text/css">
	.st0{fill:#765EA5;}
</style>
<g>
	<path class="st0" d="M148.85,50.29c0.83,0,1.67,0,2.5,0c0.85,0.15,1.7,0.42,2.55,0.44c3.91,0.07,7.79,0.44,11.66,1.01
		c5.39,0.8,10.68,2,15.8,3.78c4.47,1.55,8.84,3.43,13.12,5.46c9.22,4.38,17.4,10.32,24.76,17.36c6.07,5.8,11.3,12.3,15.73,19.43
		c4.21,6.77,7.58,13.94,10.02,21.51c1.28,3.96,2.15,8.07,3.06,12.14c1.03,4.67,1.62,9.4,1.66,14.2c0.01,1.16,0.29,2.32,0.45,3.49
		c0,0.83,0,1.67,0,2.5c-0.16,1.13-0.38,2.25-0.46,3.38c-0.19,2.56-0.14,5.14-0.51,7.67c-0.58,3.85-1.37,7.68-2.19,11.5
		c-1.09,5.12-2.83,10.05-4.86,14.87c-2.75,6.54-6.15,12.72-10.23,18.54c-6.5,9.27-14.36,17.19-23.52,23.82
		c-4.67,3.39-9.58,6.42-14.81,8.84c-4.05,1.87-8.2,3.57-12.41,5.02c-3.42,1.18-6.97,2.06-10.53,2.73
		c-4.44,0.84-8.93,1.56-13.43,1.88c-3.71,0.27-7.43,0.76-11.21,0.15c-3.64-0.59-7.36-0.62-11.03-1.09
		c-2.87-0.37-5.71-0.99-8.54-1.62c-5.96-1.32-11.69-3.38-17.26-5.89c-8.27-3.72-15.87-8.51-22.85-14.3
		c-6.07-5.03-11.47-10.7-16.19-17c-7.97-10.64-13.63-22.41-16.84-35.31c-0.91-3.65-1.48-7.38-2.13-11.08
		c-0.3-1.73-0.47-3.5-0.58-5.25c-0.19-3.04-0.42-6.1-0.41-9.14c0.01-2.59,0.23-5.2,0.56-7.77c0.56-4.49,1.09-8.99,1.99-13.42
		c0.7-3.44,1.89-6.79,2.95-10.15c1.93-6.14,4.71-11.92,7.89-17.49c3.85-6.74,8.42-13,13.86-18.55c3.37-3.44,6.98-6.66,10.67-9.76
		c5.81-4.89,12.31-8.75,19.16-12.03c7.06-3.37,14.41-5.86,22.08-7.44c5.09-1.05,10.2-1.83,15.41-1.98
		C146.11,50.7,147.48,50.45,148.85,50.29z M160.1,137.24c0-3,0.01-5.81,0-8.62c0-1.56-0.14-1.69-1.64-1.69c-7.19,0-14.38,0-21.58,0
		c-1.5,0-1.57,0.07-1.57,1.61c0,26.26,0,52.53,0,78.79c0,1.62,0.09,1.7,1.72,1.69c7.02-0.01,14.04-0.03,21.05-0.04
		c1.98,0,2-0.01,2-2.05c0-13.83,0.01-27.65-0.01-41.48c0-2.23,0.15-4.42,0.73-6.58c0.82-3.09,2.13-5.9,4.7-7.9
		c3.99-3.1,8.52-3.72,13.37-2.65c4.73,1.05,7.25,4.36,8.64,8.68c0.96,2.99,1.13,6.11,1.12,9.25c-0.02,13.76-0.01,27.51-0.01,41.27
		c0,1.37,0.11,1.48,1.37,1.48c7.43,0,14.87,0,22.3-0.01c1.97,0,2.03-0.06,2.03-2.05c0-15.18-0.02-30.36,0.02-45.54
		c0.01-5.48-0.12-10.93-1.59-16.27c-1-3.62-2.48-6.99-4.72-9.99c-4.41-5.91-10.49-9.05-17.62-10.23c-4.18-0.69-8.38-0.7-12.58,0.27
		c-2.9,0.67-5.64,1.66-8.2,3.13C165.82,130.5,162.69,133.44,160.1,137.24z M93.94,167.97c0,13.2,0,26.39,0,39.59
		c0,1.33,0.09,1.45,1.28,1.45c7.75,0,15.49-0.03,23.24-0.01c0.9,0,1.26-0.32,1.25-1.21c-0.03-2.36-0.01-4.72-0.02-7.08
		c-0.05-24.13-0.1-48.27-0.15-72.4c0-1.37-0.02-1.38-1.41-1.38c-7.54,0-15.07,0-22.61,0c-1.57,0-1.58,0.01-1.58,1.56
		C93.94,141.65,93.94,154.81,93.94,167.97z M121.78,101.5c0.11-8.36-6.66-15.37-15.19-15.31c-8.34,0.06-15.07,6.65-15.06,15.23
		c0.01,8.82,6.68,15.27,15.14,15.35C115.17,116.84,121.87,109.72,121.78,101.5z"/>
</g>
</svg>
