<?xml version="1.0" encoding="utf-8"?>
<!-- Generator: Adobe Illustrator 28.1.0, SVG Export Plug-In . SVG Version: 6.00 Build 0)  -->
<svg version="1.1" id="Camada_1" xmlns="http://www.w3.org/2000/svg" xmlns:xlink="http://www.w3.org/1999/xlink" x="0px" y="0px"
	 viewBox="0 0 300 300" style="enable-background:new 0 0 300 300;" xml:space="preserve">
<style type="text/css">
	.st0{fill:#765EA5;}
</style>
<g>
	<path class="st0" d="M150.8,75.64c4.16-3.47,8.06-6.96,12.2-10.14c8.1-6.23,16.77-11.42,26.89-13.77c12.92-3,22.49,2.28,26.8,14.86
		c2.92,8.52,3.38,17.33,2.53,26.17c-0.61,6.36-1.93,12.64-2.92,18.96c-0.08,0.53-0.09,1.07-0.13,1.49
		c5.92,2.28,11.82,4.31,17.52,6.8c8.43,3.68,16.29,8.33,22.56,15.24c4.16,4.58,7.1,9.75,6.84,16.19
		c-0.24,5.93-3.08,10.74-6.95,14.99c-7.26,8-16.48,13.05-26.28,17.15c-4.31,1.8-8.75,3.28-13.28,4.95
		c0.72,4.02,1.55,8.05,2.15,12.12c1.68,11.39,2.06,22.76-1.66,33.86c-2.49,7.44-6.74,13.48-14.82,15.62
		c-5.6,1.49-11.17,0.66-16.6-1.12c-11.13-3.66-20.43-10.32-29.16-17.89c-1.76-1.52-3.47-3.11-4.88-4.37
		c-6.34,4.79-12.33,9.69-18.7,14.04c-7.01,4.79-14.67,8.31-23.19,9.58c-12.18,1.81-20.65-3.25-24.87-14.83
		c-3.15-8.66-3.35-17.64-2.48-26.62c0.59-6.12,1.96-12.16,2.98-18.24c0.09-0.53,0.13-1.06,0.19-1.63
		c-4.27-1.54-8.49-2.92-12.59-4.57c-9.03-3.65-17.58-8.2-24.67-15.02c-2.34-2.26-4.52-4.8-6.28-7.53
		c-5.05-7.82-4.69-16.05,0.72-23.65c4.94-6.93,11.6-11.88,19.14-15.47c6.81-3.24,13.98-5.73,21-8.54c0.92-0.37,1.88-0.67,2.56-0.91
		c-1.04-6.94-2.28-13.61-2.98-20.34c-0.9-8.67-0.62-17.33,2.03-25.76c3.21-10.18,9.58-15.56,19.49-16.09
		c5.14-0.27,10.07,1.05,14.84,2.89c10.96,4.24,20.23,11.08,28.93,18.79C148.74,73.73,149.71,74.64,150.8,75.64z M150.08,186.68
		c0,0.24,0,0.47,0.01,0.71c6.64-0.26,13.28-0.48,19.91-0.84c0.83-0.05,1.97-0.7,2.38-1.41c6.38-10.92,12.68-21.89,18.91-32.89
		c0.41-0.72,0.44-2.06,0.04-2.76c-6.28-10.98-12.63-21.92-19.07-32.8c-0.45-0.76-1.72-1.47-2.61-1.48c-12.5-0.09-25-0.1-37.49,0.01
		c-0.95,0.01-2.29,0.79-2.77,1.61c-6.33,10.76-12.58,21.58-18.72,32.45c-0.49,0.87-0.46,2.52,0.04,3.41
		c6.12,10.8,12.34,21.54,18.66,32.22c0.51,0.87,1.91,1.68,2.92,1.7C138.2,186.76,144.14,186.68,150.08,186.68z M47.24,150.38
		c1.08,2.58,1.62,4.96,2.94,6.79c1.94,2.7,4.19,5.28,6.73,7.41c8.71,7.31,19.06,11.45,29.75,14.87c1.24,0.4,1.7-0.01,2.16-1.24
		c3.23-8.61,6.62-17.17,9.85-25.78c0.34-0.9,0.29-2.14-0.05-3.05c-3.15-8.39-6.44-16.74-9.6-25.13c-0.51-1.34-0.96-1.98-2.48-1.36
		c-6.78,2.75-13.72,5.17-20.35,8.24c-5.76,2.66-11.02,6.34-14.86,11.53C49.62,144.96,48.59,147.77,47.24,150.38z M144.58,219.71
		c-0.29-0.41-0.46-0.67-0.66-0.91c-5.9-7.28-11.76-14.59-17.75-21.8c-0.69-0.83-2.02-1.39-3.13-1.55
		c-5.94-0.86-11.92-1.49-17.87-2.32c-3.44-0.48-6.85-1.17-10.36-1.78c-2.6,10.29-4.21,20.47-3.21,30.83
		c0.4,4.13,1.49,8.32,3.05,12.17c2.33,5.76,6.7,7.76,12.85,6.93c5.18-0.7,9.97-2.5,14.56-4.89
		C130.46,232.02,137.78,226.26,144.58,219.71z M207.64,191.17c-9.65,1.41-18.66,2.86-27.72,3.95c-2.45,0.3-3.8,1.3-5.21,3.17
		c-5.1,6.71-10.43,13.26-15.66,19.87c-0.37,0.47-0.71,0.96-1.26,1.71c4.01,3.33,7.8,6.71,11.82,9.78
		c5.98,4.57,12.39,8.43,19.67,10.64c10.75,3.26,16.55,0.12,19.58-10.63c2.29-8.12,2.2-16.38,1.11-24.64
		C209.35,200.33,208.41,195.68,207.64,191.17z M94.84,110.6c9.63-1.4,18.87-2.79,28.13-4.03c1.73-0.23,2.71-1,3.74-2.32
		c4.9-6.28,9.91-12.48,14.9-18.68c0.82-1.02,1.74-1.96,2.79-3.13c-2.37-2.08-4.52-4.11-6.81-5.98
		c-7.97-6.51-16.34-12.35-26.46-15.04c-10.34-2.75-15.82,0.43-18.3,10.86C89.73,85.29,91.97,98.02,94.84,110.6z M206.77,110.86
		c0.11-0.29,0.3-0.63,0.38-0.99c2.13-9.17,3.49-18.44,2.96-27.87c-0.31-5.4-1.16-10.72-3.72-15.61c-2.02-3.86-5.1-6.1-9.52-6.07
		c-1.78,0.01-3.6,0.23-5.32,0.67c-13.56,3.53-23.89,12.17-33.84,21.32c0.16,0.36,0.2,0.52,0.3,0.63c5.95,7.45,11.89,14.9,17.89,22.3
		c0.47,0.58,1.36,1.02,2.11,1.14c2.93,0.45,5.9,0.65,8.83,1.12C193.43,108.57,200.03,109.73,206.77,110.86z M213.59,122.52
		c-0.28,0.6-0.47,0.93-0.61,1.29c-3.31,8.5-6.66,16.98-9.87,25.52c-0.35,0.94-0.18,2.27,0.2,3.25c3.26,8.35,6.63,16.66,9.96,24.98
		c0.22,0.55,0.47,1.09,0.77,1.8c12.2-3.94,23.85-8.51,33.28-17.32c1.86-1.74,3.42-3.86,4.82-6c2.3-3.53,2.39-7.34-0.08-10.77
		c-1.94-2.7-4.13-5.35-6.68-7.45C236.12,130.19,225.13,125.98,213.59,122.52z M197.31,161.61c-4.71,8.22-9.05,15.78-13.75,23.96
		c7.45-1.27,14.24-2.43,21.49-3.67C202.41,174.97,199.97,168.58,197.31,161.61z M151.27,213.17c4.65-5.76,8.92-11.04,13.41-16.6
		c-9.34,0-18,0-27.28,0C142.16,202.27,146.55,207.52,151.27,213.17z M118.29,185.73c-4.68-8.09-9.07-15.67-13.72-23.71
		c-2.52,6.88-4.91,13.39-7.44,20.32C104.42,183.51,111.14,184.58,118.29,185.73z M164.48,105.25c-4.68-5.63-8.99-10.82-13.55-16.31
		c-4.69,5.66-8.97,10.81-13.53,16.31C146.69,105.25,155.23,105.25,164.48,105.25z M197.19,139.89c2.53-6.82,4.89-13.15,7.4-19.89
		c-7.23-1.26-13.88-2.41-21.03-3.65C188.24,124.43,192.54,131.87,197.19,139.89z M118.13,116.35c-7.1,1.23-13.77,2.38-20.86,3.6
		c2.52,6.87,4.85,13.19,7.31,19.89C109.18,131.87,113.51,124.36,118.13,116.35z"/>
	<path class="st0" d="M150.87,170.58c-11.1,0.02-19.94-8.8-19.95-19.88c0-11.06,8.87-19.96,19.91-19.97
		c11.08,0,19.91,8.84,19.92,19.93C170.76,161.79,162,170.57,150.87,170.58z"/>
</g>
</svg>
